<?xml version="1.0" encoding="utf-8" standalone="no"?>
<!DOCTYPE svg PUBLIC "-//W3C//DTD SVG 1.1//EN"
  "http://www.w3.org/Graphics/SVG/1.1/DTD/svg11.dtd">
<svg xmlns:xlink="http://www.w3.org/1999/xlink" width="460.8pt" height="345.6pt" viewBox="0 0 460.8 345.6" xmlns="http://www.w3.org/2000/svg" version="1.1">
 <metadata>
  <rdf:RDF xmlns:dc="http://purl.org/dc/elements/1.1/" xmlns:cc="http://creativecommons.org/ns#" xmlns:rdf="http://www.w3.org/1999/02/22-rdf-syntax-ns#">
   <cc:Work>
    <dc:type rdf:resource="http://purl.org/dc/dcmitype/StillImage"/>
    <dc:date>2022-11-08T02:59:12.031975</dc:date>
    <dc:format>image/svg+xml</dc:format>
    <dc:creator>
     <cc:Agent>
      <dc:title>Matplotlib v3.5.2, https://matplotlib.org/</dc:title>
     </cc:Agent>
    </dc:creator>
   </cc:Work>
  </rdf:RDF>
 </metadata>
 <defs>
  <style type="text/css">*{stroke-linejoin: round; stroke-linecap: butt}</style>
 </defs>
 <g id="figure_1">
  <g id="patch_1">
   <path d="M 0 345.6 
L 460.8 345.6 
L 460.8 0 
L 0 0 
z
" style="fill: #ffffff"/>
  </g>
  <g id="axes_1">
   <g id="patch_2">
    <path d="M 190.825 303.64 
L 450 303.64 
L 450 26.16 
L 190.825 26.16 
z
" style="fill: #ffffff"/>
   </g>
   <g id="patch_3">
    <path d="M 190.825 299.559412 
L 199.346699 299.559412 
L 199.346699 291.398235 
L 190.825 291.398235 
z
" clip-path="url(#p936cd00436)" style="fill: #1f77b4"/>
   </g>
   <g id="patch_4">
    <path d="M 190.825 283.237059 
L 232.700617 283.237059 
L 232.700617 275.075882 
L 190.825 275.075882 
z
" clip-path="url(#p936cd00436)" style="fill: #1f77b4"/>
   </g>
   <g id="patch_5">
    <path d="M 190.825 266.914706 
L 193.706355 266.914706 
L 193.706355 258.753529 
L 190.825 258.753529 
z
" clip-path="url(#p936cd00436)" style="fill: #1f77b4"/>
   </g>
   <g id="patch_6">
    <path d="M 190.825 250.592353 
L 220.070894 250.592353 
L 220.070894 242.431176 
L 190.825 242.431176 
z
" clip-path="url(#p936cd00436)" style="fill: #1f77b4"/>
   </g>
   <g id="patch_7">
    <path d="M 190.825 234.27 
L 225.42502 234.27 
L 225.42502 226.108824 
L 190.825 226.108824 
z
" clip-path="url(#p936cd00436)" style="fill: #1f77b4"/>
   </g>
   <g id="patch_8">
    <path d="M 190.825 217.947647 
L 323.312958 217.947647 
L 323.312958 209.786471 
L 190.825 209.786471 
z
" clip-path="url(#p936cd00436)" style="fill: #1f77b4"/>
   </g>
   <g id="patch_9">
    <path d="M 190.825 201.625294 
L 194.626455 201.625294 
L 194.626455 193.464118 
L 190.825 193.464118 
z
" clip-path="url(#p936cd00436)" style="fill: #1f77b4"/>
   </g>
   <g id="patch_10">
    <path d="M 190.825 185.302941 
L 250.053604 185.302941 
L 250.053604 177.141765 
L 190.825 177.141765 
z
" clip-path="url(#p936cd00436)" style="fill: #1f77b4"/>
   </g>
   <g id="patch_11">
    <path d="M 190.825 168.980588 
L 208.854014 168.980588 
L 208.854014 160.819412 
L 190.825 160.819412 
z
" clip-path="url(#p936cd00436)" style="fill: #1f77b4"/>
   </g>
   <g id="patch_12">
    <path d="M 190.825 152.658235 
L 322.314869 152.658235 
L 322.314869 144.497059 
L 190.825 144.497059 
z
" clip-path="url(#p936cd00436)" style="fill: #1f77b4"/>
   </g>
   <g id="patch_13">
    <path d="M 190.825 136.335882 
L 200.879938 136.335882 
L 200.879938 128.174706 
L 190.825 128.174706 
z
" clip-path="url(#p936cd00436)" style="fill: #1f77b4"/>
   </g>
   <g id="patch_14">
    <path d="M 190.825 120.013529 
L 192.54218 120.013529 
L 192.54218 111.852353 
L 190.825 111.852353 
z
" clip-path="url(#p936cd00436)" style="fill: #1f77b4"/>
   </g>
   <g id="patch_15">
    <path d="M 190.825 103.691176 
L 437.658333 103.691176 
L 437.658333 95.53 
L 190.825 95.53 
z
" clip-path="url(#p936cd00436)" style="fill: #1f77b4"/>
   </g>
   <g id="patch_16">
    <path d="M 190.825 87.368824 
L 192.373863 87.368824 
L 192.373863 79.207647 
L 190.825 79.207647 
z
" clip-path="url(#p936cd00436)" style="fill: #1f77b4"/>
   </g>
   <g id="patch_17">
    <path d="M 190.825 71.046471 
L 193.644384 71.046471 
L 193.644384 62.885294 
L 190.825 62.885294 
z
" clip-path="url(#p936cd00436)" style="fill: #1f77b4"/>
   </g>
   <g id="patch_18">
    <path d="M 190.825 54.724118 
L 223.879833 54.724118 
L 223.879833 46.562941 
L 190.825 46.562941 
z
" clip-path="url(#p936cd00436)" style="fill: #1f77b4"/>
   </g>
   <g id="patch_19">
    <path d="M 190.825 38.401765 
L 191.851842 38.401765 
L 191.851842 30.240588 
L 190.825 30.240588 
z
" clip-path="url(#p936cd00436)" style="fill: #1f77b4"/>
   </g>
   <g id="matplotlib.axis_1">
    <g id="xtick_1">
     <g id="line2d_1">
      <defs>
       <path id="m88d6b3a7e8" d="M 0 0 
L 0 3.5 
" style="stroke: #000000; stroke-width: 0.8"/>
      </defs>
      <g>
       <use xlink:href="#m88d6b3a7e8" x="190.825" y="303.64" style="stroke: #000000; stroke-width: 0.8"/>
      </g>
     </g>
     <g id="text_1">
      <!-- 0 -->
      <g transform="translate(187.64375 318.238437)scale(0.1 -0.1)">
       <defs>
        <path id="DejaVuSans-30" d="M 2034 4250 
Q 1547 4250 1301 3770 
Q 1056 3291 1056 2328 
Q 1056 1369 1301 889 
Q 1547 409 2034 409 
Q 2525 409 2770 889 
Q 3016 1369 3016 2328 
Q 3016 3291 2770 3770 
Q 2525 4250 2034 4250 
z
M 2034 4750 
Q 2819 4750 3233 4129 
Q 3647 3509 3647 2328 
Q 3647 1150 3233 529 
Q 2819 -91 2034 -91 
Q 1250 -91 836 529 
Q 422 1150 422 2328 
Q 422 3509 836 4129 
Q 1250 4750 2034 4750 
z
" transform="scale(0.015625)"/>
       </defs>
       <use xlink:href="#DejaVuSans-30"/>
      </g>
     </g>
    </g>
    <g id="xtick_2">
     <g id="line2d_2">
      <g>
       <use xlink:href="#m88d6b3a7e8" x="223.648232" y="303.64" style="stroke: #000000; stroke-width: 0.8"/>
      </g>
     </g>
     <g id="text_2">
      <!-- 250 -->
      <g transform="translate(214.104482 318.238437)scale(0.1 -0.1)">
       <defs>
        <path id="DejaVuSans-32" d="M 1228 531 
L 3431 531 
L 3431 0 
L 469 0 
L 469 531 
Q 828 903 1448 1529 
Q 2069 2156 2228 2338 
Q 2531 2678 2651 2914 
Q 2772 3150 2772 3378 
Q 2772 3750 2511 3984 
Q 2250 4219 1831 4219 
Q 1534 4219 1204 4116 
Q 875 4013 500 3803 
L 500 4441 
Q 881 4594 1212 4672 
Q 1544 4750 1819 4750 
Q 2544 4750 2975 4387 
Q 3406 4025 3406 3419 
Q 3406 3131 3298 2873 
Q 3191 2616 2906 2266 
Q 2828 2175 2409 1742 
Q 1991 1309 1228 531 
z
" transform="scale(0.015625)"/>
        <path id="DejaVuSans-35" d="M 691 4666 
L 3169 4666 
L 3169 4134 
L 1269 4134 
L 1269 2991 
Q 1406 3038 1543 3061 
Q 1681 3084 1819 3084 
Q 2600 3084 3056 2656 
Q 3513 2228 3513 1497 
Q 3513 744 3044 326 
Q 2575 -91 1722 -91 
Q 1428 -91 1123 -41 
Q 819 9 494 109 
L 494 744 
Q 775 591 1075 516 
Q 1375 441 1709 441 
Q 2250 441 2565 725 
Q 2881 1009 2881 1497 
Q 2881 1984 2565 2268 
Q 2250 2553 1709 2553 
Q 1456 2553 1204 2497 
Q 953 2441 691 2322 
L 691 4666 
z
" transform="scale(0.015625)"/>
       </defs>
       <use xlink:href="#DejaVuSans-32"/>
       <use xlink:href="#DejaVuSans-35" x="63.623047"/>
       <use xlink:href="#DejaVuSans-30" x="127.246094"/>
      </g>
     </g>
    </g>
    <g id="xtick_3">
     <g id="line2d_3">
      <g>
       <use xlink:href="#m88d6b3a7e8" x="256.471465" y="303.64" style="stroke: #000000; stroke-width: 0.8"/>
      </g>
     </g>
     <g id="text_3">
      <!-- 500 -->
      <g transform="translate(246.927715 318.238437)scale(0.1 -0.1)">
       <use xlink:href="#DejaVuSans-35"/>
       <use xlink:href="#DejaVuSans-30" x="63.623047"/>
       <use xlink:href="#DejaVuSans-30" x="127.246094"/>
      </g>
     </g>
    </g>
    <g id="xtick_4">
     <g id="line2d_4">
      <g>
       <use xlink:href="#m88d6b3a7e8" x="289.294697" y="303.64" style="stroke: #000000; stroke-width: 0.8"/>
      </g>
     </g>
     <g id="text_4">
      <!-- 750 -->
      <g transform="translate(279.750947 318.238437)scale(0.1 -0.1)">
       <defs>
        <path id="DejaVuSans-37" d="M 525 4666 
L 3525 4666 
L 3525 4397 
L 1831 0 
L 1172 0 
L 2766 4134 
L 525 4134 
L 525 4666 
z
" transform="scale(0.015625)"/>
       </defs>
       <use xlink:href="#DejaVuSans-37"/>
       <use xlink:href="#DejaVuSans-35" x="63.623047"/>
       <use xlink:href="#DejaVuSans-30" x="127.246094"/>
      </g>
     </g>
    </g>
    <g id="xtick_5">
     <g id="line2d_5">
      <g>
       <use xlink:href="#m88d6b3a7e8" x="322.11793" y="303.64" style="stroke: #000000; stroke-width: 0.8"/>
      </g>
     </g>
     <g id="text_5">
      <!-- 1000 -->
      <g transform="translate(309.39293 318.238437)scale(0.1 -0.1)">
       <defs>
        <path id="DejaVuSans-31" d="M 794 531 
L 1825 531 
L 1825 4091 
L 703 3866 
L 703 4441 
L 1819 4666 
L 2450 4666 
L 2450 531 
L 3481 531 
L 3481 0 
L 794 0 
L 794 531 
z
" transform="scale(0.015625)"/>
       </defs>
       <use xlink:href="#DejaVuSans-31"/>
       <use xlink:href="#DejaVuSans-30" x="63.623047"/>
       <use xlink:href="#DejaVuSans-30" x="127.246094"/>
       <use xlink:href="#DejaVuSans-30" x="190.869141"/>
      </g>
     </g>
    </g>
    <g id="xtick_6">
     <g id="line2d_6">
      <g>
       <use xlink:href="#m88d6b3a7e8" x="354.941162" y="303.64" style="stroke: #000000; stroke-width: 0.8"/>
      </g>
     </g>
     <g id="text_6">
      <!-- 1250 -->
      <g transform="translate(342.216162 318.238437)scale(0.1 -0.1)">
       <use xlink:href="#DejaVuSans-31"/>
       <use xlink:href="#DejaVuSans-32" x="63.623047"/>
       <use xlink:href="#DejaVuSans-35" x="127.246094"/>
       <use xlink:href="#DejaVuSans-30" x="190.869141"/>
      </g>
     </g>
    </g>
    <g id="xtick_7">
     <g id="line2d_7">
      <g>
       <use xlink:href="#m88d6b3a7e8" x="387.764394" y="303.64" style="stroke: #000000; stroke-width: 0.8"/>
      </g>
     </g>
     <g id="text_7">
      <!-- 1500 -->
      <g transform="translate(375.039394 318.238437)scale(0.1 -0.1)">
       <use xlink:href="#DejaVuSans-31"/>
       <use xlink:href="#DejaVuSans-35" x="63.623047"/>
       <use xlink:href="#DejaVuSans-30" x="127.246094"/>
       <use xlink:href="#DejaVuSans-30" x="190.869141"/>
      </g>
     </g>
    </g>
    <g id="xtick_8">
     <g id="line2d_8">
      <g>
       <use xlink:href="#m88d6b3a7e8" x="420.587627" y="303.64" style="stroke: #000000; stroke-width: 0.8"/>
      </g>
     </g>
     <g id="text_8">
      <!-- 1750 -->
      <g transform="translate(407.862627 318.238437)scale(0.1 -0.1)">
       <use xlink:href="#DejaVuSans-31"/>
       <use xlink:href="#DejaVuSans-37" x="63.623047"/>
       <use xlink:href="#DejaVuSans-35" x="127.246094"/>
       <use xlink:href="#DejaVuSans-30" x="190.869141"/>
      </g>
     </g>
    </g>
    <g id="text_9">
     <!-- Time spend -->
     <g transform="translate(291.391406 331.916562)scale(0.1 -0.1)">
      <defs>
       <path id="DejaVuSans-54" d="M -19 4666 
L 3928 4666 
L 3928 4134 
L 2272 4134 
L 2272 0 
L 1638 0 
L 1638 4134 
L -19 4134 
L -19 4666 
z
" transform="scale(0.015625)"/>
       <path id="DejaVuSans-69" d="M 603 3500 
L 1178 3500 
L 1178 0 
L 603 0 
L 603 3500 
z
M 603 4863 
L 1178 4863 
L 1178 4134 
L 603 4134 
L 603 4863 
z
" transform="scale(0.015625)"/>
       <path id="DejaVuSans-6d" d="M 3328 2828 
Q 3544 3216 3844 3400 
Q 4144 3584 4550 3584 
Q 5097 3584 5394 3201 
Q 5691 2819 5691 2113 
L 5691 0 
L 5113 0 
L 5113 2094 
Q 5113 2597 4934 2840 
Q 4756 3084 4391 3084 
Q 3944 3084 3684 2787 
Q 3425 2491 3425 1978 
L 3425 0 
L 2847 0 
L 2847 2094 
Q 2847 2600 2669 2842 
Q 2491 3084 2119 3084 
Q 1678 3084 1418 2786 
Q 1159 2488 1159 1978 
L 1159 0 
L 581 0 
L 581 3500 
L 1159 3500 
L 1159 2956 
Q 1356 3278 1631 3431 
Q 1906 3584 2284 3584 
Q 2666 3584 2933 3390 
Q 3200 3197 3328 2828 
z
" transform="scale(0.015625)"/>
       <path id="DejaVuSans-65" d="M 3597 1894 
L 3597 1613 
L 953 1613 
Q 991 1019 1311 708 
Q 1631 397 2203 397 
Q 2534 397 2845 478 
Q 3156 559 3463 722 
L 3463 178 
Q 3153 47 2828 -22 
Q 2503 -91 2169 -91 
Q 1331 -91 842 396 
Q 353 884 353 1716 
Q 353 2575 817 3079 
Q 1281 3584 2069 3584 
Q 2775 3584 3186 3129 
Q 3597 2675 3597 1894 
z
M 3022 2063 
Q 3016 2534 2758 2815 
Q 2500 3097 2075 3097 
Q 1594 3097 1305 2825 
Q 1016 2553 972 2059 
L 3022 2063 
z
" transform="scale(0.015625)"/>
       <path id="DejaVuSans-20" transform="scale(0.015625)"/>
       <path id="DejaVuSans-73" d="M 2834 3397 
L 2834 2853 
Q 2591 2978 2328 3040 
Q 2066 3103 1784 3103 
Q 1356 3103 1142 2972 
Q 928 2841 928 2578 
Q 928 2378 1081 2264 
Q 1234 2150 1697 2047 
L 1894 2003 
Q 2506 1872 2764 1633 
Q 3022 1394 3022 966 
Q 3022 478 2636 193 
Q 2250 -91 1575 -91 
Q 1294 -91 989 -36 
Q 684 19 347 128 
L 347 722 
Q 666 556 975 473 
Q 1284 391 1588 391 
Q 1994 391 2212 530 
Q 2431 669 2431 922 
Q 2431 1156 2273 1281 
Q 2116 1406 1581 1522 
L 1381 1569 
Q 847 1681 609 1914 
Q 372 2147 372 2553 
Q 372 3047 722 3315 
Q 1072 3584 1716 3584 
Q 2034 3584 2315 3537 
Q 2597 3491 2834 3397 
z
" transform="scale(0.015625)"/>
       <path id="DejaVuSans-70" d="M 1159 525 
L 1159 -1331 
L 581 -1331 
L 581 3500 
L 1159 3500 
L 1159 2969 
Q 1341 3281 1617 3432 
Q 1894 3584 2278 3584 
Q 2916 3584 3314 3078 
Q 3713 2572 3713 1747 
Q 3713 922 3314 415 
Q 2916 -91 2278 -91 
Q 1894 -91 1617 61 
Q 1341 213 1159 525 
z
M 3116 1747 
Q 3116 2381 2855 2742 
Q 2594 3103 2138 3103 
Q 1681 3103 1420 2742 
Q 1159 2381 1159 1747 
Q 1159 1113 1420 752 
Q 1681 391 2138 391 
Q 2594 391 2855 752 
Q 3116 1113 3116 1747 
z
" transform="scale(0.015625)"/>
       <path id="DejaVuSans-6e" d="M 3513 2113 
L 3513 0 
L 2938 0 
L 2938 2094 
Q 2938 2591 2744 2837 
Q 2550 3084 2163 3084 
Q 1697 3084 1428 2787 
Q 1159 2491 1159 1978 
L 1159 0 
L 581 0 
L 581 3500 
L 1159 3500 
L 1159 2956 
Q 1366 3272 1645 3428 
Q 1925 3584 2291 3584 
Q 2894 3584 3203 3211 
Q 3513 2838 3513 2113 
z
" transform="scale(0.015625)"/>
       <path id="DejaVuSans-64" d="M 2906 2969 
L 2906 4863 
L 3481 4863 
L 3481 0 
L 2906 0 
L 2906 525 
Q 2725 213 2448 61 
Q 2172 -91 1784 -91 
Q 1150 -91 751 415 
Q 353 922 353 1747 
Q 353 2572 751 3078 
Q 1150 3584 1784 3584 
Q 2172 3584 2448 3432 
Q 2725 3281 2906 2969 
z
M 947 1747 
Q 947 1113 1208 752 
Q 1469 391 1925 391 
Q 2381 391 2643 752 
Q 2906 1113 2906 1747 
Q 2906 2381 2643 2742 
Q 2381 3103 1925 3103 
Q 1469 3103 1208 2742 
Q 947 2381 947 1747 
z
" transform="scale(0.015625)"/>
      </defs>
      <use xlink:href="#DejaVuSans-54"/>
      <use xlink:href="#DejaVuSans-69" x="57.958984"/>
      <use xlink:href="#DejaVuSans-6d" x="85.742188"/>
      <use xlink:href="#DejaVuSans-65" x="183.154297"/>
      <use xlink:href="#DejaVuSans-20" x="244.677734"/>
      <use xlink:href="#DejaVuSans-73" x="276.464844"/>
      <use xlink:href="#DejaVuSans-70" x="328.564453"/>
      <use xlink:href="#DejaVuSans-65" x="392.041016"/>
      <use xlink:href="#DejaVuSans-6e" x="453.564453"/>
      <use xlink:href="#DejaVuSans-64" x="516.943359"/>
     </g>
    </g>
   </g>
   <g id="matplotlib.axis_2">
    <g id="ytick_1">
     <g id="line2d_9">
      <defs>
       <path id="mbb0b0faa1c" d="M 0 0 
L -3.5 0 
" style="stroke: #000000; stroke-width: 0.8"/>
      </defs>
      <g>
       <use xlink:href="#mbb0b0faa1c" x="190.825" y="295.478824" style="stroke: #000000; stroke-width: 0.8"/>
      </g>
     </g>
     <g id="text_10">
      <!-- arcanedata.github.io -->
      <g transform="translate(79.845313 299.278042)scale(0.1 -0.1)">
       <defs>
        <path id="DejaVuSans-61" d="M 2194 1759 
Q 1497 1759 1228 1600 
Q 959 1441 959 1056 
Q 959 750 1161 570 
Q 1363 391 1709 391 
Q 2188 391 2477 730 
Q 2766 1069 2766 1631 
L 2766 1759 
L 2194 1759 
z
M 3341 1997 
L 3341 0 
L 2766 0 
L 2766 531 
Q 2569 213 2275 61 
Q 1981 -91 1556 -91 
Q 1019 -91 701 211 
Q 384 513 384 1019 
Q 384 1609 779 1909 
Q 1175 2209 1959 2209 
L 2766 2209 
L 2766 2266 
Q 2766 2663 2505 2880 
Q 2244 3097 1772 3097 
Q 1472 3097 1187 3025 
Q 903 2953 641 2809 
L 641 3341 
Q 956 3463 1253 3523 
Q 1550 3584 1831 3584 
Q 2591 3584 2966 3190 
Q 3341 2797 3341 1997 
z
" transform="scale(0.015625)"/>
        <path id="DejaVuSans-72" d="M 2631 2963 
Q 2534 3019 2420 3045 
Q 2306 3072 2169 3072 
Q 1681 3072 1420 2755 
Q 1159 2438 1159 1844 
L 1159 0 
L 581 0 
L 581 3500 
L 1159 3500 
L 1159 2956 
Q 1341 3275 1631 3429 
Q 1922 3584 2338 3584 
Q 2397 3584 2469 3576 
Q 2541 3569 2628 3553 
L 2631 2963 
z
" transform="scale(0.015625)"/>
        <path id="DejaVuSans-63" d="M 3122 3366 
L 3122 2828 
Q 2878 2963 2633 3030 
Q 2388 3097 2138 3097 
Q 1578 3097 1268 2742 
Q 959 2388 959 1747 
Q 959 1106 1268 751 
Q 1578 397 2138 397 
Q 2388 397 2633 464 
Q 2878 531 3122 666 
L 3122 134 
Q 2881 22 2623 -34 
Q 2366 -91 2075 -91 
Q 1284 -91 818 406 
Q 353 903 353 1747 
Q 353 2603 823 3093 
Q 1294 3584 2113 3584 
Q 2378 3584 2631 3529 
Q 2884 3475 3122 3366 
z
" transform="scale(0.015625)"/>
        <path id="DejaVuSans-74" d="M 1172 4494 
L 1172 3500 
L 2356 3500 
L 2356 3053 
L 1172 3053 
L 1172 1153 
Q 1172 725 1289 603 
Q 1406 481 1766 481 
L 2356 481 
L 2356 0 
L 1766 0 
Q 1100 0 847 248 
Q 594 497 594 1153 
L 594 3053 
L 172 3053 
L 172 3500 
L 594 3500 
L 594 4494 
L 1172 4494 
z
" transform="scale(0.015625)"/>
        <path id="DejaVuSans-2e" d="M 684 794 
L 1344 794 
L 1344 0 
L 684 0 
L 684 794 
z
" transform="scale(0.015625)"/>
        <path id="DejaVuSans-67" d="M 2906 1791 
Q 2906 2416 2648 2759 
Q 2391 3103 1925 3103 
Q 1463 3103 1205 2759 
Q 947 2416 947 1791 
Q 947 1169 1205 825 
Q 1463 481 1925 481 
Q 2391 481 2648 825 
Q 2906 1169 2906 1791 
z
M 3481 434 
Q 3481 -459 3084 -895 
Q 2688 -1331 1869 -1331 
Q 1566 -1331 1297 -1286 
Q 1028 -1241 775 -1147 
L 775 -588 
Q 1028 -725 1275 -790 
Q 1522 -856 1778 -856 
Q 2344 -856 2625 -561 
Q 2906 -266 2906 331 
L 2906 616 
Q 2728 306 2450 153 
Q 2172 0 1784 0 
Q 1141 0 747 490 
Q 353 981 353 1791 
Q 353 2603 747 3093 
Q 1141 3584 1784 3584 
Q 2172 3584 2450 3431 
Q 2728 3278 2906 2969 
L 2906 3500 
L 3481 3500 
L 3481 434 
z
" transform="scale(0.015625)"/>
        <path id="DejaVuSans-68" d="M 3513 2113 
L 3513 0 
L 2938 0 
L 2938 2094 
Q 2938 2591 2744 2837 
Q 2550 3084 2163 3084 
Q 1697 3084 1428 2787 
Q 1159 2491 1159 1978 
L 1159 0 
L 581 0 
L 581 4863 
L 1159 4863 
L 1159 2956 
Q 1366 3272 1645 3428 
Q 1925 3584 2291 3584 
Q 2894 3584 3203 3211 
Q 3513 2838 3513 2113 
z
" transform="scale(0.015625)"/>
        <path id="DejaVuSans-75" d="M 544 1381 
L 544 3500 
L 1119 3500 
L 1119 1403 
Q 1119 906 1312 657 
Q 1506 409 1894 409 
Q 2359 409 2629 706 
Q 2900 1003 2900 1516 
L 2900 3500 
L 3475 3500 
L 3475 0 
L 2900 0 
L 2900 538 
Q 2691 219 2414 64 
Q 2138 -91 1772 -91 
Q 1169 -91 856 284 
Q 544 659 544 1381 
z
M 1991 3584 
L 1991 3584 
z
" transform="scale(0.015625)"/>
        <path id="DejaVuSans-62" d="M 3116 1747 
Q 3116 2381 2855 2742 
Q 2594 3103 2138 3103 
Q 1681 3103 1420 2742 
Q 1159 2381 1159 1747 
Q 1159 1113 1420 752 
Q 1681 391 2138 391 
Q 2594 391 2855 752 
Q 3116 1113 3116 1747 
z
M 1159 2969 
Q 1341 3281 1617 3432 
Q 1894 3584 2278 3584 
Q 2916 3584 3314 3078 
Q 3713 2572 3713 1747 
Q 3713 922 3314 415 
Q 2916 -91 2278 -91 
Q 1894 -91 1617 61 
Q 1341 213 1159 525 
L 1159 0 
L 581 0 
L 581 4863 
L 1159 4863 
L 1159 2969 
z
" transform="scale(0.015625)"/>
        <path id="DejaVuSans-6f" d="M 1959 3097 
Q 1497 3097 1228 2736 
Q 959 2375 959 1747 
Q 959 1119 1226 758 
Q 1494 397 1959 397 
Q 2419 397 2687 759 
Q 2956 1122 2956 1747 
Q 2956 2369 2687 2733 
Q 2419 3097 1959 3097 
z
M 1959 3584 
Q 2709 3584 3137 3096 
Q 3566 2609 3566 1747 
Q 3566 888 3137 398 
Q 2709 -91 1959 -91 
Q 1206 -91 779 398 
Q 353 888 353 1747 
Q 353 2609 779 3096 
Q 1206 3584 1959 3584 
z
" transform="scale(0.015625)"/>
       </defs>
       <use xlink:href="#DejaVuSans-61"/>
       <use xlink:href="#DejaVuSans-72" x="61.279297"/>
       <use xlink:href="#DejaVuSans-63" x="100.142578"/>
       <use xlink:href="#DejaVuSans-61" x="155.123047"/>
       <use xlink:href="#DejaVuSans-6e" x="216.402344"/>
       <use xlink:href="#DejaVuSans-65" x="279.78125"/>
       <use xlink:href="#DejaVuSans-64" x="341.304688"/>
       <use xlink:href="#DejaVuSans-61" x="404.78125"/>
       <use xlink:href="#DejaVuSans-74" x="466.060547"/>
       <use xlink:href="#DejaVuSans-61" x="505.269531"/>
       <use xlink:href="#DejaVuSans-2e" x="566.548828"/>
       <use xlink:href="#DejaVuSans-67" x="598.335938"/>
       <use xlink:href="#DejaVuSans-69" x="661.8125"/>
       <use xlink:href="#DejaVuSans-74" x="689.595703"/>
       <use xlink:href="#DejaVuSans-68" x="728.804688"/>
       <use xlink:href="#DejaVuSans-75" x="792.183594"/>
       <use xlink:href="#DejaVuSans-62" x="855.5625"/>
       <use xlink:href="#DejaVuSans-2e" x="919.039062"/>
       <use xlink:href="#DejaVuSans-69" x="950.826172"/>
       <use xlink:href="#DejaVuSans-6f" x="978.609375"/>
      </g>
     </g>
    </g>
    <g id="ytick_2">
     <g id="line2d_10">
      <g>
       <use xlink:href="#mbb0b0faa1c" x="190.825" y="279.156471" style="stroke: #000000; stroke-width: 0.8"/>
      </g>
     </g>
     <g id="text_11">
      <!-- cran.r-project.org -->
      <g transform="translate(97.20625 282.955689)scale(0.1 -0.1)">
       <defs>
        <path id="DejaVuSans-2d" d="M 313 2009 
L 1997 2009 
L 1997 1497 
L 313 1497 
L 313 2009 
z
" transform="scale(0.015625)"/>
        <path id="DejaVuSans-6a" d="M 603 3500 
L 1178 3500 
L 1178 -63 
Q 1178 -731 923 -1031 
Q 669 -1331 103 -1331 
L -116 -1331 
L -116 -844 
L 38 -844 
Q 366 -844 484 -692 
Q 603 -541 603 -63 
L 603 3500 
z
M 603 4863 
L 1178 4863 
L 1178 4134 
L 603 4134 
L 603 4863 
z
" transform="scale(0.015625)"/>
       </defs>
       <use xlink:href="#DejaVuSans-63"/>
       <use xlink:href="#DejaVuSans-72" x="54.980469"/>
       <use xlink:href="#DejaVuSans-61" x="96.09375"/>
       <use xlink:href="#DejaVuSans-6e" x="157.373047"/>
       <use xlink:href="#DejaVuSans-2e" x="220.751953"/>
       <use xlink:href="#DejaVuSans-72" x="252.539062"/>
       <use xlink:href="#DejaVuSans-2d" x="287.277344"/>
       <use xlink:href="#DejaVuSans-70" x="323.361328"/>
       <use xlink:href="#DejaVuSans-72" x="386.837891"/>
       <use xlink:href="#DejaVuSans-6f" x="425.701172"/>
       <use xlink:href="#DejaVuSans-6a" x="486.882812"/>
       <use xlink:href="#DejaVuSans-65" x="514.666016"/>
       <use xlink:href="#DejaVuSans-63" x="576.189453"/>
       <use xlink:href="#DejaVuSans-74" x="631.169922"/>
       <use xlink:href="#DejaVuSans-2e" x="670.378906"/>
       <use xlink:href="#DejaVuSans-6f" x="702.166016"/>
       <use xlink:href="#DejaVuSans-72" x="763.347656"/>
       <use xlink:href="#DejaVuSans-67" x="802.710938"/>
      </g>
     </g>
    </g>
    <g id="ytick_3">
     <g id="line2d_11">
      <g>
       <use xlink:href="#mbb0b0faa1c" x="190.825" y="262.834118" style="stroke: #000000; stroke-width: 0.8"/>
      </g>
     </g>
     <g id="text_12">
      <!-- elibooklover.github.io -->
      <g transform="translate(76.248438 266.633336)scale(0.1 -0.1)">
       <defs>
        <path id="DejaVuSans-6c" d="M 603 4863 
L 1178 4863 
L 1178 0 
L 603 0 
L 603 4863 
z
" transform="scale(0.015625)"/>
        <path id="DejaVuSans-6b" d="M 581 4863 
L 1159 4863 
L 1159 1991 
L 2875 3500 
L 3609 3500 
L 1753 1863 
L 3688 0 
L 2938 0 
L 1159 1709 
L 1159 0 
L 581 0 
L 581 4863 
z
" transform="scale(0.015625)"/>
        <path id="DejaVuSans-76" d="M 191 3500 
L 800 3500 
L 1894 563 
L 2988 3500 
L 3597 3500 
L 2284 0 
L 1503 0 
L 191 3500 
z
" transform="scale(0.015625)"/>
       </defs>
       <use xlink:href="#DejaVuSans-65"/>
       <use xlink:href="#DejaVuSans-6c" x="61.523438"/>
       <use xlink:href="#DejaVuSans-69" x="89.306641"/>
       <use xlink:href="#DejaVuSans-62" x="117.089844"/>
       <use xlink:href="#DejaVuSans-6f" x="180.566406"/>
       <use xlink:href="#DejaVuSans-6f" x="241.748047"/>
       <use xlink:href="#DejaVuSans-6b" x="302.929688"/>
       <use xlink:href="#DejaVuSans-6c" x="360.839844"/>
       <use xlink:href="#DejaVuSans-6f" x="388.623047"/>
       <use xlink:href="#DejaVuSans-76" x="449.804688"/>
       <use xlink:href="#DejaVuSans-65" x="508.984375"/>
       <use xlink:href="#DejaVuSans-72" x="570.507812"/>
       <use xlink:href="#DejaVuSans-2e" x="602.496094"/>
       <use xlink:href="#DejaVuSans-67" x="634.283203"/>
       <use xlink:href="#DejaVuSans-69" x="697.759766"/>
       <use xlink:href="#DejaVuSans-74" x="725.542969"/>
       <use xlink:href="#DejaVuSans-68" x="764.751953"/>
       <use xlink:href="#DejaVuSans-75" x="828.130859"/>
       <use xlink:href="#DejaVuSans-62" x="891.509766"/>
       <use xlink:href="#DejaVuSans-2e" x="954.986328"/>
       <use xlink:href="#DejaVuSans-69" x="986.773438"/>
       <use xlink:href="#DejaVuSans-6f" x="1014.556641"/>
      </g>
     </g>
    </g>
    <g id="ytick_4">
     <g id="line2d_12">
      <g>
       <use xlink:href="#mbb0b0faa1c" x="190.825" y="246.511765" style="stroke: #000000; stroke-width: 0.8"/>
      </g>
     </g>
     <g id="text_13">
      <!-- github.com -->
      <g transform="translate(127.21875 250.310983)scale(0.1 -0.1)">
       <use xlink:href="#DejaVuSans-67"/>
       <use xlink:href="#DejaVuSans-69" x="63.476562"/>
       <use xlink:href="#DejaVuSans-74" x="91.259766"/>
       <use xlink:href="#DejaVuSans-68" x="130.46875"/>
       <use xlink:href="#DejaVuSans-75" x="193.847656"/>
       <use xlink:href="#DejaVuSans-62" x="257.226562"/>
       <use xlink:href="#DejaVuSans-2e" x="320.703125"/>
       <use xlink:href="#DejaVuSans-63" x="352.490234"/>
       <use xlink:href="#DejaVuSans-6f" x="407.470703"/>
       <use xlink:href="#DejaVuSans-6d" x="468.652344"/>
      </g>
     </g>
    </g>
    <g id="ytick_5">
     <g id="line2d_13">
      <g>
       <use xlink:href="#mbb0b0faa1c" x="190.825" y="230.189412" style="stroke: #000000; stroke-width: 0.8"/>
      </g>
     </g>
     <g id="text_14">
      <!-- r-graph-gallery.com -->
      <g transform="translate(86.535938 233.988631)scale(0.1 -0.1)">
       <defs>
        <path id="DejaVuSans-79" d="M 2059 -325 
Q 1816 -950 1584 -1140 
Q 1353 -1331 966 -1331 
L 506 -1331 
L 506 -850 
L 844 -850 
Q 1081 -850 1212 -737 
Q 1344 -625 1503 -206 
L 1606 56 
L 191 3500 
L 800 3500 
L 1894 763 
L 2988 3500 
L 3597 3500 
L 2059 -325 
z
" transform="scale(0.015625)"/>
       </defs>
       <use xlink:href="#DejaVuSans-72"/>
       <use xlink:href="#DejaVuSans-2d" x="34.738281"/>
       <use xlink:href="#DejaVuSans-67" x="70.822266"/>
       <use xlink:href="#DejaVuSans-72" x="134.298828"/>
       <use xlink:href="#DejaVuSans-61" x="175.412109"/>
       <use xlink:href="#DejaVuSans-70" x="236.691406"/>
       <use xlink:href="#DejaVuSans-68" x="300.167969"/>
       <use xlink:href="#DejaVuSans-2d" x="363.546875"/>
       <use xlink:href="#DejaVuSans-67" x="399.630859"/>
       <use xlink:href="#DejaVuSans-61" x="463.107422"/>
       <use xlink:href="#DejaVuSans-6c" x="524.386719"/>
       <use xlink:href="#DejaVuSans-6c" x="552.169922"/>
       <use xlink:href="#DejaVuSans-65" x="579.953125"/>
       <use xlink:href="#DejaVuSans-72" x="641.476562"/>
       <use xlink:href="#DejaVuSans-79" x="682.589844"/>
       <use xlink:href="#DejaVuSans-2e" x="727.519531"/>
       <use xlink:href="#DejaVuSans-63" x="759.306641"/>
       <use xlink:href="#DejaVuSans-6f" x="814.287109"/>
       <use xlink:href="#DejaVuSans-6d" x="875.46875"/>
      </g>
     </g>
    </g>
    <g id="ytick_6">
     <g id="line2d_14">
      <g>
       <use xlink:href="#mbb0b0faa1c" x="190.825" y="213.867059" style="stroke: #000000; stroke-width: 0.8"/>
      </g>
     </g>
     <g id="text_15">
      <!-- stackoverflow.com -->
      <g transform="translate(91.120313 217.666278)scale(0.1 -0.1)">
       <defs>
        <path id="DejaVuSans-66" d="M 2375 4863 
L 2375 4384 
L 1825 4384 
Q 1516 4384 1395 4259 
Q 1275 4134 1275 3809 
L 1275 3500 
L 2222 3500 
L 2222 3053 
L 1275 3053 
L 1275 0 
L 697 0 
L 697 3053 
L 147 3053 
L 147 3500 
L 697 3500 
L 697 3744 
Q 697 4328 969 4595 
Q 1241 4863 1831 4863 
L 2375 4863 
z
" transform="scale(0.015625)"/>
        <path id="DejaVuSans-77" d="M 269 3500 
L 844 3500 
L 1563 769 
L 2278 3500 
L 2956 3500 
L 3675 769 
L 4391 3500 
L 4966 3500 
L 4050 0 
L 3372 0 
L 2619 2869 
L 1863 0 
L 1184 0 
L 269 3500 
z
" transform="scale(0.015625)"/>
       </defs>
       <use xlink:href="#DejaVuSans-73"/>
       <use xlink:href="#DejaVuSans-74" x="52.099609"/>
       <use xlink:href="#DejaVuSans-61" x="91.308594"/>
       <use xlink:href="#DejaVuSans-63" x="152.587891"/>
       <use xlink:href="#DejaVuSans-6b" x="207.568359"/>
       <use xlink:href="#DejaVuSans-6f" x="261.853516"/>
       <use xlink:href="#DejaVuSans-76" x="323.035156"/>
       <use xlink:href="#DejaVuSans-65" x="382.214844"/>
       <use xlink:href="#DejaVuSans-72" x="443.738281"/>
       <use xlink:href="#DejaVuSans-66" x="484.851562"/>
       <use xlink:href="#DejaVuSans-6c" x="520.056641"/>
       <use xlink:href="#DejaVuSans-6f" x="547.839844"/>
       <use xlink:href="#DejaVuSans-77" x="609.021484"/>
       <use xlink:href="#DejaVuSans-2e" x="681.683594"/>
       <use xlink:href="#DejaVuSans-63" x="713.470703"/>
       <use xlink:href="#DejaVuSans-6f" x="768.451172"/>
       <use xlink:href="#DejaVuSans-6d" x="829.632812"/>
      </g>
     </g>
    </g>
    <g id="ytick_7">
     <g id="line2d_15">
      <g>
       <use xlink:href="#mbb0b0faa1c" x="190.825" y="197.544706" style="stroke: #000000; stroke-width: 0.8"/>
      </g>
     </g>
     <g id="text_16">
      <!-- statisticsglobe.com -->
      <g transform="translate(86.970313 201.343925)scale(0.1 -0.1)">
       <use xlink:href="#DejaVuSans-73"/>
       <use xlink:href="#DejaVuSans-74" x="52.099609"/>
       <use xlink:href="#DejaVuSans-61" x="91.308594"/>
       <use xlink:href="#DejaVuSans-74" x="152.587891"/>
       <use xlink:href="#DejaVuSans-69" x="191.796875"/>
       <use xlink:href="#DejaVuSans-73" x="219.580078"/>
       <use xlink:href="#DejaVuSans-74" x="271.679688"/>
       <use xlink:href="#DejaVuSans-69" x="310.888672"/>
       <use xlink:href="#DejaVuSans-63" x="338.671875"/>
       <use xlink:href="#DejaVuSans-73" x="393.652344"/>
       <use xlink:href="#DejaVuSans-67" x="445.751953"/>
       <use xlink:href="#DejaVuSans-6c" x="509.228516"/>
       <use xlink:href="#DejaVuSans-6f" x="537.011719"/>
       <use xlink:href="#DejaVuSans-62" x="598.193359"/>
       <use xlink:href="#DejaVuSans-65" x="661.669922"/>
       <use xlink:href="#DejaVuSans-2e" x="723.193359"/>
       <use xlink:href="#DejaVuSans-63" x="754.980469"/>
       <use xlink:href="#DejaVuSans-6f" x="809.960938"/>
       <use xlink:href="#DejaVuSans-6d" x="871.142578"/>
      </g>
     </g>
    </g>
    <g id="ytick_8">
     <g id="line2d_16">
      <g>
       <use xlink:href="#mbb0b0faa1c" x="190.825" y="181.222353" style="stroke: #000000; stroke-width: 0.8"/>
      </g>
     </g>
     <g id="text_17">
      <!-- towardsdatascience.com -->
      <g transform="translate(59.296875 185.021572)scale(0.1 -0.1)">
       <use xlink:href="#DejaVuSans-74"/>
       <use xlink:href="#DejaVuSans-6f" x="39.208984"/>
       <use xlink:href="#DejaVuSans-77" x="100.390625"/>
       <use xlink:href="#DejaVuSans-61" x="182.177734"/>
       <use xlink:href="#DejaVuSans-72" x="243.457031"/>
       <use xlink:href="#DejaVuSans-64" x="282.820312"/>
       <use xlink:href="#DejaVuSans-73" x="346.296875"/>
       <use xlink:href="#DejaVuSans-64" x="398.396484"/>
       <use xlink:href="#DejaVuSans-61" x="461.873047"/>
       <use xlink:href="#DejaVuSans-74" x="523.152344"/>
       <use xlink:href="#DejaVuSans-61" x="562.361328"/>
       <use xlink:href="#DejaVuSans-73" x="623.640625"/>
       <use xlink:href="#DejaVuSans-63" x="675.740234"/>
       <use xlink:href="#DejaVuSans-69" x="730.720703"/>
       <use xlink:href="#DejaVuSans-65" x="758.503906"/>
       <use xlink:href="#DejaVuSans-6e" x="820.027344"/>
       <use xlink:href="#DejaVuSans-63" x="883.40625"/>
       <use xlink:href="#DejaVuSans-65" x="938.386719"/>
       <use xlink:href="#DejaVuSans-2e" x="999.910156"/>
       <use xlink:href="#DejaVuSans-63" x="1031.697266"/>
       <use xlink:href="#DejaVuSans-6f" x="1086.677734"/>
       <use xlink:href="#DejaVuSans-6d" x="1147.859375"/>
      </g>
     </g>
    </g>
    <g id="ytick_9">
     <g id="line2d_17">
      <g>
       <use xlink:href="#mbb0b0faa1c" x="190.825" y="164.9" style="stroke: #000000; stroke-width: 0.8"/>
      </g>
     </g>
     <g id="text_18">
      <!-- www.datasciencemadesimple.com -->
      <g transform="translate(10.957813 168.699219)scale(0.1 -0.1)">
       <use xlink:href="#DejaVuSans-77"/>
       <use xlink:href="#DejaVuSans-77" x="81.787109"/>
       <use xlink:href="#DejaVuSans-77" x="163.574219"/>
       <use xlink:href="#DejaVuSans-2e" x="236.236328"/>
       <use xlink:href="#DejaVuSans-64" x="268.023438"/>
       <use xlink:href="#DejaVuSans-61" x="331.5"/>
       <use xlink:href="#DejaVuSans-74" x="392.779297"/>
       <use xlink:href="#DejaVuSans-61" x="431.988281"/>
       <use xlink:href="#DejaVuSans-73" x="493.267578"/>
       <use xlink:href="#DejaVuSans-63" x="545.367188"/>
       <use xlink:href="#DejaVuSans-69" x="600.347656"/>
       <use xlink:href="#DejaVuSans-65" x="628.130859"/>
       <use xlink:href="#DejaVuSans-6e" x="689.654297"/>
       <use xlink:href="#DejaVuSans-63" x="753.033203"/>
       <use xlink:href="#DejaVuSans-65" x="808.013672"/>
       <use xlink:href="#DejaVuSans-6d" x="869.537109"/>
       <use xlink:href="#DejaVuSans-61" x="966.949219"/>
       <use xlink:href="#DejaVuSans-64" x="1028.228516"/>
       <use xlink:href="#DejaVuSans-65" x="1091.705078"/>
       <use xlink:href="#DejaVuSans-73" x="1153.228516"/>
       <use xlink:href="#DejaVuSans-69" x="1205.328125"/>
       <use xlink:href="#DejaVuSans-6d" x="1233.111328"/>
       <use xlink:href="#DejaVuSans-70" x="1330.523438"/>
       <use xlink:href="#DejaVuSans-6c" x="1394"/>
       <use xlink:href="#DejaVuSans-65" x="1421.783203"/>
       <use xlink:href="#DejaVuSans-2e" x="1483.306641"/>
       <use xlink:href="#DejaVuSans-63" x="1515.09375"/>
       <use xlink:href="#DejaVuSans-6f" x="1570.074219"/>
       <use xlink:href="#DejaVuSans-6d" x="1631.255859"/>
      </g>
     </g>
    </g>
    <g id="ytick_10">
     <g id="line2d_18">
      <g>
       <use xlink:href="#mbb0b0faa1c" x="190.825" y="148.577647" style="stroke: #000000; stroke-width: 0.8"/>
      </g>
     </g>
     <g id="text_19">
      <!-- www.google.com -->
      <g transform="translate(98.623438 152.376866)scale(0.1 -0.1)">
       <use xlink:href="#DejaVuSans-77"/>
       <use xlink:href="#DejaVuSans-77" x="81.787109"/>
       <use xlink:href="#DejaVuSans-77" x="163.574219"/>
       <use xlink:href="#DejaVuSans-2e" x="236.236328"/>
       <use xlink:href="#DejaVuSans-67" x="268.023438"/>
       <use xlink:href="#DejaVuSans-6f" x="331.5"/>
       <use xlink:href="#DejaVuSans-6f" x="392.681641"/>
       <use xlink:href="#DejaVuSans-67" x="453.863281"/>
       <use xlink:href="#DejaVuSans-6c" x="517.339844"/>
       <use xlink:href="#DejaVuSans-65" x="545.123047"/>
       <use xlink:href="#DejaVuSans-2e" x="606.646484"/>
       <use xlink:href="#DejaVuSans-63" x="638.433594"/>
       <use xlink:href="#DejaVuSans-6f" x="693.414062"/>
       <use xlink:href="#DejaVuSans-6d" x="754.595703"/>
      </g>
     </g>
    </g>
    <g id="ytick_11">
     <g id="line2d_19">
      <g>
       <use xlink:href="#mbb0b0faa1c" x="190.825" y="132.255294" style="stroke: #000000; stroke-width: 0.8"/>
      </g>
     </g>
     <g id="text_20">
      <!-- www.projectpro.io -->
      <g transform="translate(94.06875 136.054513)scale(0.1 -0.1)">
       <use xlink:href="#DejaVuSans-77"/>
       <use xlink:href="#DejaVuSans-77" x="81.787109"/>
       <use xlink:href="#DejaVuSans-77" x="163.574219"/>
       <use xlink:href="#DejaVuSans-2e" x="236.236328"/>
       <use xlink:href="#DejaVuSans-70" x="268.023438"/>
       <use xlink:href="#DejaVuSans-72" x="331.5"/>
       <use xlink:href="#DejaVuSans-6f" x="370.363281"/>
       <use xlink:href="#DejaVuSans-6a" x="431.544922"/>
       <use xlink:href="#DejaVuSans-65" x="459.328125"/>
       <use xlink:href="#DejaVuSans-63" x="520.851562"/>
       <use xlink:href="#DejaVuSans-74" x="575.832031"/>
       <use xlink:href="#DejaVuSans-70" x="615.041016"/>
       <use xlink:href="#DejaVuSans-72" x="678.517578"/>
       <use xlink:href="#DejaVuSans-6f" x="717.380859"/>
       <use xlink:href="#DejaVuSans-2e" x="776.8125"/>
       <use xlink:href="#DejaVuSans-69" x="808.599609"/>
       <use xlink:href="#DejaVuSans-6f" x="836.382812"/>
      </g>
     </g>
    </g>
    <g id="ytick_12">
     <g id="line2d_20">
      <g>
       <use xlink:href="#mbb0b0faa1c" x="190.825" y="115.932941" style="stroke: #000000; stroke-width: 0.8"/>
      </g>
     </g>
     <g id="text_21">
      <!-- www.r-bloggers.com -->
      <g transform="translate(81.992188 119.73216)scale(0.1 -0.1)">
       <use xlink:href="#DejaVuSans-77"/>
       <use xlink:href="#DejaVuSans-77" x="81.787109"/>
       <use xlink:href="#DejaVuSans-77" x="163.574219"/>
       <use xlink:href="#DejaVuSans-2e" x="236.236328"/>
       <use xlink:href="#DejaVuSans-72" x="268.023438"/>
       <use xlink:href="#DejaVuSans-2d" x="302.761719"/>
       <use xlink:href="#DejaVuSans-62" x="338.845703"/>
       <use xlink:href="#DejaVuSans-6c" x="402.322266"/>
       <use xlink:href="#DejaVuSans-6f" x="430.105469"/>
       <use xlink:href="#DejaVuSans-67" x="491.287109"/>
       <use xlink:href="#DejaVuSans-67" x="554.763672"/>
       <use xlink:href="#DejaVuSans-65" x="618.240234"/>
       <use xlink:href="#DejaVuSans-72" x="679.763672"/>
       <use xlink:href="#DejaVuSans-73" x="720.876953"/>
       <use xlink:href="#DejaVuSans-2e" x="772.976562"/>
       <use xlink:href="#DejaVuSans-63" x="804.763672"/>
       <use xlink:href="#DejaVuSans-6f" x="859.744141"/>
       <use xlink:href="#DejaVuSans-6d" x="920.925781"/>
      </g>
     </g>
    </g>
    <g id="ytick_13">
     <g id="line2d_21">
      <g>
       <use xlink:href="#mbb0b0faa1c" x="190.825" y="99.610588" style="stroke: #000000; stroke-width: 0.8"/>
      </g>
     </g>
     <g id="text_22">
      <!-- www.rdocumentation.org -->
      <g transform="translate(57.770313 103.409807)scale(0.1 -0.1)">
       <use xlink:href="#DejaVuSans-77"/>
       <use xlink:href="#DejaVuSans-77" x="81.787109"/>
       <use xlink:href="#DejaVuSans-77" x="163.574219"/>
       <use xlink:href="#DejaVuSans-2e" x="236.236328"/>
       <use xlink:href="#DejaVuSans-72" x="268.023438"/>
       <use xlink:href="#DejaVuSans-64" x="307.386719"/>
       <use xlink:href="#DejaVuSans-6f" x="370.863281"/>
       <use xlink:href="#DejaVuSans-63" x="432.044922"/>
       <use xlink:href="#DejaVuSans-75" x="487.025391"/>
       <use xlink:href="#DejaVuSans-6d" x="550.404297"/>
       <use xlink:href="#DejaVuSans-65" x="647.816406"/>
       <use xlink:href="#DejaVuSans-6e" x="709.339844"/>
       <use xlink:href="#DejaVuSans-74" x="772.71875"/>
       <use xlink:href="#DejaVuSans-61" x="811.927734"/>
       <use xlink:href="#DejaVuSans-74" x="873.207031"/>
       <use xlink:href="#DejaVuSans-69" x="912.416016"/>
       <use xlink:href="#DejaVuSans-6f" x="940.199219"/>
       <use xlink:href="#DejaVuSans-6e" x="1001.380859"/>
       <use xlink:href="#DejaVuSans-2e" x="1064.759766"/>
       <use xlink:href="#DejaVuSans-6f" x="1096.546875"/>
       <use xlink:href="#DejaVuSans-72" x="1157.728516"/>
       <use xlink:href="#DejaVuSans-67" x="1197.091797"/>
      </g>
     </g>
    </g>
    <g id="ytick_14">
     <g id="line2d_22">
      <g>
       <use xlink:href="#mbb0b0faa1c" x="190.825" y="83.288235" style="stroke: #000000; stroke-width: 0.8"/>
      </g>
     </g>
     <g id="text_23">
      <!-- www.stat.columbia.edu -->
      <g transform="translate(66.923438 87.087454)scale(0.1 -0.1)">
       <use xlink:href="#DejaVuSans-77"/>
       <use xlink:href="#DejaVuSans-77" x="81.787109"/>
       <use xlink:href="#DejaVuSans-77" x="163.574219"/>
       <use xlink:href="#DejaVuSans-2e" x="236.236328"/>
       <use xlink:href="#DejaVuSans-73" x="268.023438"/>
       <use xlink:href="#DejaVuSans-74" x="320.123047"/>
       <use xlink:href="#DejaVuSans-61" x="359.332031"/>
       <use xlink:href="#DejaVuSans-74" x="420.611328"/>
       <use xlink:href="#DejaVuSans-2e" x="459.820312"/>
       <use xlink:href="#DejaVuSans-63" x="491.607422"/>
       <use xlink:href="#DejaVuSans-6f" x="546.587891"/>
       <use xlink:href="#DejaVuSans-6c" x="607.769531"/>
       <use xlink:href="#DejaVuSans-75" x="635.552734"/>
       <use xlink:href="#DejaVuSans-6d" x="698.931641"/>
       <use xlink:href="#DejaVuSans-62" x="796.34375"/>
       <use xlink:href="#DejaVuSans-69" x="859.820312"/>
       <use xlink:href="#DejaVuSans-61" x="887.603516"/>
       <use xlink:href="#DejaVuSans-2e" x="948.882812"/>
       <use xlink:href="#DejaVuSans-65" x="980.669922"/>
       <use xlink:href="#DejaVuSans-64" x="1042.193359"/>
       <use xlink:href="#DejaVuSans-75" x="1105.669922"/>
      </g>
     </g>
    </g>
    <g id="ytick_15">
     <g id="line2d_23">
      <g>
       <use xlink:href="#mbb0b0faa1c" x="190.825" y="66.965882" style="stroke: #000000; stroke-width: 0.8"/>
      </g>
     </g>
     <g id="text_24">
      <!-- www.sthda.com -->
      <g transform="translate(104.545313 70.765101)scale(0.1 -0.1)">
       <use xlink:href="#DejaVuSans-77"/>
       <use xlink:href="#DejaVuSans-77" x="81.787109"/>
       <use xlink:href="#DejaVuSans-77" x="163.574219"/>
       <use xlink:href="#DejaVuSans-2e" x="236.236328"/>
       <use xlink:href="#DejaVuSans-73" x="268.023438"/>
       <use xlink:href="#DejaVuSans-74" x="320.123047"/>
       <use xlink:href="#DejaVuSans-68" x="359.332031"/>
       <use xlink:href="#DejaVuSans-64" x="422.710938"/>
       <use xlink:href="#DejaVuSans-61" x="486.1875"/>
       <use xlink:href="#DejaVuSans-2e" x="547.466797"/>
       <use xlink:href="#DejaVuSans-63" x="579.253906"/>
       <use xlink:href="#DejaVuSans-6f" x="634.234375"/>
       <use xlink:href="#DejaVuSans-6d" x="695.416016"/>
      </g>
     </g>
    </g>
    <g id="ytick_16">
     <g id="line2d_24">
      <g>
       <use xlink:href="#mbb0b0faa1c" x="190.825" y="50.643529" style="stroke: #000000; stroke-width: 0.8"/>
      </g>
     </g>
     <g id="text_25">
      <!-- www.tidytextmining.com -->
      <g transform="translate(59.465625 54.442748)scale(0.1 -0.1)">
       <defs>
        <path id="DejaVuSans-78" d="M 3513 3500 
L 2247 1797 
L 3578 0 
L 2900 0 
L 1881 1375 
L 863 0 
L 184 0 
L 1544 1831 
L 300 3500 
L 978 3500 
L 1906 2253 
L 2834 3500 
L 3513 3500 
z
" transform="scale(0.015625)"/>
       </defs>
       <use xlink:href="#DejaVuSans-77"/>
       <use xlink:href="#DejaVuSans-77" x="81.787109"/>
       <use xlink:href="#DejaVuSans-77" x="163.574219"/>
       <use xlink:href="#DejaVuSans-2e" x="236.236328"/>
       <use xlink:href="#DejaVuSans-74" x="268.023438"/>
       <use xlink:href="#DejaVuSans-69" x="307.232422"/>
       <use xlink:href="#DejaVuSans-64" x="335.015625"/>
       <use xlink:href="#DejaVuSans-79" x="398.492188"/>
       <use xlink:href="#DejaVuSans-74" x="457.671875"/>
       <use xlink:href="#DejaVuSans-65" x="496.880859"/>
       <use xlink:href="#DejaVuSans-78" x="556.654297"/>
       <use xlink:href="#DejaVuSans-74" x="615.833984"/>
       <use xlink:href="#DejaVuSans-6d" x="655.042969"/>
       <use xlink:href="#DejaVuSans-69" x="752.455078"/>
       <use xlink:href="#DejaVuSans-6e" x="780.238281"/>
       <use xlink:href="#DejaVuSans-69" x="843.617188"/>
       <use xlink:href="#DejaVuSans-6e" x="871.400391"/>
       <use xlink:href="#DejaVuSans-67" x="934.779297"/>
       <use xlink:href="#DejaVuSans-2e" x="998.255859"/>
       <use xlink:href="#DejaVuSans-63" x="1030.042969"/>
       <use xlink:href="#DejaVuSans-6f" x="1085.023438"/>
       <use xlink:href="#DejaVuSans-6d" x="1146.205078"/>
      </g>
     </g>
    </g>
    <g id="ytick_17">
     <g id="line2d_25">
      <g>
       <use xlink:href="#mbb0b0faa1c" x="190.825" y="34.321176" style="stroke: #000000; stroke-width: 0.8"/>
      </g>
     </g>
     <g id="text_26">
      <!-- yulijia.net -->
      <g transform="translate(134.739063 38.120395)scale(0.1 -0.1)">
       <use xlink:href="#DejaVuSans-79"/>
       <use xlink:href="#DejaVuSans-75" x="59.179688"/>
       <use xlink:href="#DejaVuSans-6c" x="122.558594"/>
       <use xlink:href="#DejaVuSans-69" x="150.341797"/>
       <use xlink:href="#DejaVuSans-6a" x="178.125"/>
       <use xlink:href="#DejaVuSans-69" x="205.908203"/>
       <use xlink:href="#DejaVuSans-61" x="233.691406"/>
       <use xlink:href="#DejaVuSans-2e" x="294.970703"/>
       <use xlink:href="#DejaVuSans-6e" x="326.757812"/>
       <use xlink:href="#DejaVuSans-65" x="390.136719"/>
       <use xlink:href="#DejaVuSans-74" x="451.660156"/>
      </g>
     </g>
    </g>
   </g>
   <g id="patch_20">
    <path d="M 190.825 303.64 
L 190.825 26.16 
" style="fill: none; stroke: #000000; stroke-width: 0.8; stroke-linejoin: miter; stroke-linecap: square"/>
   </g>
   <g id="patch_21">
    <path d="M 450 303.64 
L 450 26.16 
" style="fill: none; stroke: #000000; stroke-width: 0.8; stroke-linejoin: miter; stroke-linecap: square"/>
   </g>
   <g id="patch_22">
    <path d="M 190.825 303.64 
L 450 303.64 
" style="fill: none; stroke: #000000; stroke-width: 0.8; stroke-linejoin: miter; stroke-linecap: square"/>
   </g>
   <g id="patch_23">
    <path d="M 190.825 26.16 
L 450 26.16 
" style="fill: none; stroke: #000000; stroke-width: 0.8; stroke-linejoin: miter; stroke-linecap: square"/>
   </g>
   <g id="text_27">
    <!-- Arseniy_Aseev -->
    <g transform="translate(276.838438 20.16)scale(0.12 -0.12)">
     <defs>
      <path id="DejaVuSans-41" d="M 2188 4044 
L 1331 1722 
L 3047 1722 
L 2188 4044 
z
M 1831 4666 
L 2547 4666 
L 4325 0 
L 3669 0 
L 3244 1197 
L 1141 1197 
L 716 0 
L 50 0 
L 1831 4666 
z
" transform="scale(0.015625)"/>
      <path id="DejaVuSans-5f" d="M 3263 -1063 
L 3263 -1509 
L -63 -1509 
L -63 -1063 
L 3263 -1063 
z
" transform="scale(0.015625)"/>
     </defs>
     <use xlink:href="#DejaVuSans-41"/>
     <use xlink:href="#DejaVuSans-72" x="68.408203"/>
     <use xlink:href="#DejaVuSans-73" x="109.521484"/>
     <use xlink:href="#DejaVuSans-65" x="161.621094"/>
     <use xlink:href="#DejaVuSans-6e" x="223.144531"/>
     <use xlink:href="#DejaVuSans-69" x="286.523438"/>
     <use xlink:href="#DejaVuSans-79" x="314.306641"/>
     <use xlink:href="#DejaVuSans-5f" x="373.486328"/>
     <use xlink:href="#DejaVuSans-41" x="423.486328"/>
     <use xlink:href="#DejaVuSans-73" x="491.894531"/>
     <use xlink:href="#DejaVuSans-65" x="543.994141"/>
     <use xlink:href="#DejaVuSans-65" x="605.517578"/>
     <use xlink:href="#DejaVuSans-76" x="667.041016"/>
    </g>
   </g>
  </g>
 </g>
 <defs>
  <clipPath id="p936cd00436">
   <rect x="190.825" y="26.16" width="259.175" height="277.48"/>
  </clipPath>
 </defs>
</svg>
