<?xml version="1.0" encoding="utf-8" standalone="no"?>
<!DOCTYPE svg PUBLIC "-//W3C//DTD SVG 1.1//EN"
  "http://www.w3.org/Graphics/SVG/1.1/DTD/svg11.dtd">
<svg xmlns:xlink="http://www.w3.org/1999/xlink" width="460.8pt" height="345.6pt" viewBox="0 0 460.8 345.6" xmlns="http://www.w3.org/2000/svg" version="1.1">
 <metadata>
  <rdf:RDF xmlns:dc="http://purl.org/dc/elements/1.1/" xmlns:cc="http://creativecommons.org/ns#" xmlns:rdf="http://www.w3.org/1999/02/22-rdf-syntax-ns#">
   <cc:Work>
    <dc:type rdf:resource="http://purl.org/dc/dcmitype/StillImage"/>
    <dc:date>2022-11-08T02:59:14.434627</dc:date>
    <dc:format>image/svg+xml</dc:format>
    <dc:creator>
     <cc:Agent>
      <dc:title>Matplotlib v3.5.2, https://matplotlib.org/</dc:title>
     </cc:Agent>
    </dc:creator>
   </cc:Work>
  </rdf:RDF>
 </metadata>
 <defs>
  <style type="text/css">*{stroke-linejoin: round; stroke-linecap: butt}</style>
 </defs>
 <g id="figure_1">
  <g id="patch_1">
   <path d="M 0 345.6 
L 460.8 345.6 
L 460.8 0 
L 0 0 
z
" style="fill: #ffffff"/>
  </g>
  <g id="axes_1">
   <g id="patch_2">
    <path d="M 142.315 303.64 
L 450 303.64 
L 450 26.16 
L 142.315 26.16 
z
" style="fill: #ffffff"/>
   </g>
   <g id="patch_3">
    <path d="M 142.315 298.303846 
L 364.520632 298.303846 
L 364.520632 287.631538 
L 142.315 287.631538 
z
" clip-path="url(#p417155f1b6)" style="fill: #1f77b4"/>
   </g>
   <g id="patch_4">
    <path d="M 142.315 276.959231 
L 313.491044 276.959231 
L 313.491044 266.286923 
L 142.315 266.286923 
z
" clip-path="url(#p417155f1b6)" style="fill: #1f77b4"/>
   </g>
   <g id="patch_5">
    <path d="M 142.315 255.614615 
L 195.834975 255.614615 
L 195.834975 244.942308 
L 142.315 244.942308 
z
" clip-path="url(#p417155f1b6)" style="fill: #1f77b4"/>
   </g>
   <g id="patch_6">
    <path d="M 142.315 234.27 
L 167.027207 234.27 
L 167.027207 223.597692 
L 142.315 223.597692 
z
" clip-path="url(#p417155f1b6)" style="fill: #1f77b4"/>
   </g>
   <g id="patch_7">
    <path d="M 142.315 212.925385 
L 309.934729 212.925385 
L 309.934729 202.253077 
L 142.315 202.253077 
z
" clip-path="url(#p417155f1b6)" style="fill: #1f77b4"/>
   </g>
   <g id="patch_8">
    <path d="M 142.315 191.580769 
L 367.289984 191.580769 
L 367.289984 180.908462 
L 142.315 180.908462 
z
" clip-path="url(#p417155f1b6)" style="fill: #1f77b4"/>
   </g>
   <g id="patch_9">
    <path d="M 142.315 170.236154 
L 168.082183 170.236154 
L 168.082183 159.563846 
L 142.315 159.563846 
z
" clip-path="url(#p417155f1b6)" style="fill: #1f77b4"/>
   </g>
   <g id="patch_10">
    <path d="M 142.315 148.891538 
L 251.052898 148.891538 
L 251.052898 138.219231 
L 142.315 138.219231 
z
" clip-path="url(#p417155f1b6)" style="fill: #1f77b4"/>
   </g>
   <g id="patch_11">
    <path d="M 142.315 127.546923 
L 435.348333 127.546923 
L 435.348333 116.874615 
L 142.315 116.874615 
z
" clip-path="url(#p417155f1b6)" style="fill: #1f77b4"/>
   </g>
   <g id="patch_12">
    <path d="M 142.315 106.202308 
L 146.842538 106.202308 
L 146.842538 95.53 
L 142.315 95.53 
z
" clip-path="url(#p417155f1b6)" style="fill: #1f77b4"/>
   </g>
   <g id="patch_13">
    <path d="M 142.315 84.857692 
L 156.114085 84.857692 
L 156.114085 74.185385 
L 142.315 74.185385 
z
" clip-path="url(#p417155f1b6)" style="fill: #1f77b4"/>
   </g>
   <g id="patch_14">
    <path d="M 142.315 63.513077 
L 347.626844 63.513077 
L 347.626844 52.840769 
L 142.315 52.840769 
z
" clip-path="url(#p417155f1b6)" style="fill: #1f77b4"/>
   </g>
   <g id="patch_15">
    <path d="M 142.315 42.168462 
L 207.288632 42.168462 
L 207.288632 31.496154 
L 142.315 31.496154 
z
" clip-path="url(#p417155f1b6)" style="fill: #1f77b4"/>
   </g>
   <g id="matplotlib.axis_1">
    <g id="xtick_1">
     <g id="line2d_1">
      <defs>
       <path id="mf3a35ccff5" d="M 0 0 
L 0 3.5 
" style="stroke: #000000; stroke-width: 0.8"/>
      </defs>
      <g>
       <use xlink:href="#mf3a35ccff5" x="142.315" y="303.64" style="stroke: #000000; stroke-width: 0.8"/>
      </g>
     </g>
     <g id="text_1">
      <!-- 0 -->
      <g transform="translate(139.13375 318.238437)scale(0.1 -0.1)">
       <defs>
        <path id="DejaVuSans-30" d="M 2034 4250 
Q 1547 4250 1301 3770 
Q 1056 3291 1056 2328 
Q 1056 1369 1301 889 
Q 1547 409 2034 409 
Q 2525 409 2770 889 
Q 3016 1369 3016 2328 
Q 3016 3291 2770 3770 
Q 2525 4250 2034 4250 
z
M 2034 4750 
Q 2819 4750 3233 4129 
Q 3647 3509 3647 2328 
Q 3647 1150 3233 529 
Q 2819 -91 2034 -91 
Q 1250 -91 836 529 
Q 422 1150 422 2328 
Q 422 3509 836 4129 
Q 1250 4750 2034 4750 
z
" transform="scale(0.015625)"/>
       </defs>
       <use xlink:href="#DejaVuSans-30"/>
      </g>
     </g>
    </g>
    <g id="xtick_2">
     <g id="line2d_2">
      <g>
       <use xlink:href="#mf3a35ccff5" x="206.74101" y="303.64" style="stroke: #000000; stroke-width: 0.8"/>
      </g>
     </g>
     <g id="text_2">
      <!-- 200 -->
      <g transform="translate(197.19726 318.238437)scale(0.1 -0.1)">
       <defs>
        <path id="DejaVuSans-32" d="M 1228 531 
L 3431 531 
L 3431 0 
L 469 0 
L 469 531 
Q 828 903 1448 1529 
Q 2069 2156 2228 2338 
Q 2531 2678 2651 2914 
Q 2772 3150 2772 3378 
Q 2772 3750 2511 3984 
Q 2250 4219 1831 4219 
Q 1534 4219 1204 4116 
Q 875 4013 500 3803 
L 500 4441 
Q 881 4594 1212 4672 
Q 1544 4750 1819 4750 
Q 2544 4750 2975 4387 
Q 3406 4025 3406 3419 
Q 3406 3131 3298 2873 
Q 3191 2616 2906 2266 
Q 2828 2175 2409 1742 
Q 1991 1309 1228 531 
z
" transform="scale(0.015625)"/>
       </defs>
       <use xlink:href="#DejaVuSans-32"/>
       <use xlink:href="#DejaVuSans-30" x="63.623047"/>
       <use xlink:href="#DejaVuSans-30" x="127.246094"/>
      </g>
     </g>
    </g>
    <g id="xtick_3">
     <g id="line2d_3">
      <g>
       <use xlink:href="#mf3a35ccff5" x="271.167021" y="303.64" style="stroke: #000000; stroke-width: 0.8"/>
      </g>
     </g>
     <g id="text_3">
      <!-- 400 -->
      <g transform="translate(261.623271 318.238437)scale(0.1 -0.1)">
       <defs>
        <path id="DejaVuSans-34" d="M 2419 4116 
L 825 1625 
L 2419 1625 
L 2419 4116 
z
M 2253 4666 
L 3047 4666 
L 3047 1625 
L 3713 1625 
L 3713 1100 
L 3047 1100 
L 3047 0 
L 2419 0 
L 2419 1100 
L 313 1100 
L 313 1709 
L 2253 4666 
z
" transform="scale(0.015625)"/>
       </defs>
       <use xlink:href="#DejaVuSans-34"/>
       <use xlink:href="#DejaVuSans-30" x="63.623047"/>
       <use xlink:href="#DejaVuSans-30" x="127.246094"/>
      </g>
     </g>
    </g>
    <g id="xtick_4">
     <g id="line2d_4">
      <g>
       <use xlink:href="#mf3a35ccff5" x="335.593031" y="303.64" style="stroke: #000000; stroke-width: 0.8"/>
      </g>
     </g>
     <g id="text_4">
      <!-- 600 -->
      <g transform="translate(326.049281 318.238437)scale(0.1 -0.1)">
       <defs>
        <path id="DejaVuSans-36" d="M 2113 2584 
Q 1688 2584 1439 2293 
Q 1191 2003 1191 1497 
Q 1191 994 1439 701 
Q 1688 409 2113 409 
Q 2538 409 2786 701 
Q 3034 994 3034 1497 
Q 3034 2003 2786 2293 
Q 2538 2584 2113 2584 
z
M 3366 4563 
L 3366 3988 
Q 3128 4100 2886 4159 
Q 2644 4219 2406 4219 
Q 1781 4219 1451 3797 
Q 1122 3375 1075 2522 
Q 1259 2794 1537 2939 
Q 1816 3084 2150 3084 
Q 2853 3084 3261 2657 
Q 3669 2231 3669 1497 
Q 3669 778 3244 343 
Q 2819 -91 2113 -91 
Q 1303 -91 875 529 
Q 447 1150 447 2328 
Q 447 3434 972 4092 
Q 1497 4750 2381 4750 
Q 2619 4750 2861 4703 
Q 3103 4656 3366 4563 
z
" transform="scale(0.015625)"/>
       </defs>
       <use xlink:href="#DejaVuSans-36"/>
       <use xlink:href="#DejaVuSans-30" x="63.623047"/>
       <use xlink:href="#DejaVuSans-30" x="127.246094"/>
      </g>
     </g>
    </g>
    <g id="xtick_5">
     <g id="line2d_5">
      <g>
       <use xlink:href="#mf3a35ccff5" x="400.019042" y="303.64" style="stroke: #000000; stroke-width: 0.8"/>
      </g>
     </g>
     <g id="text_5">
      <!-- 800 -->
      <g transform="translate(390.475292 318.238437)scale(0.1 -0.1)">
       <defs>
        <path id="DejaVuSans-38" d="M 2034 2216 
Q 1584 2216 1326 1975 
Q 1069 1734 1069 1313 
Q 1069 891 1326 650 
Q 1584 409 2034 409 
Q 2484 409 2743 651 
Q 3003 894 3003 1313 
Q 3003 1734 2745 1975 
Q 2488 2216 2034 2216 
z
M 1403 2484 
Q 997 2584 770 2862 
Q 544 3141 544 3541 
Q 544 4100 942 4425 
Q 1341 4750 2034 4750 
Q 2731 4750 3128 4425 
Q 3525 4100 3525 3541 
Q 3525 3141 3298 2862 
Q 3072 2584 2669 2484 
Q 3125 2378 3379 2068 
Q 3634 1759 3634 1313 
Q 3634 634 3220 271 
Q 2806 -91 2034 -91 
Q 1263 -91 848 271 
Q 434 634 434 1313 
Q 434 1759 690 2068 
Q 947 2378 1403 2484 
z
M 1172 3481 
Q 1172 3119 1398 2916 
Q 1625 2713 2034 2713 
Q 2441 2713 2670 2916 
Q 2900 3119 2900 3481 
Q 2900 3844 2670 4047 
Q 2441 4250 2034 4250 
Q 1625 4250 1398 4047 
Q 1172 3844 1172 3481 
z
" transform="scale(0.015625)"/>
       </defs>
       <use xlink:href="#DejaVuSans-38"/>
       <use xlink:href="#DejaVuSans-30" x="63.623047"/>
       <use xlink:href="#DejaVuSans-30" x="127.246094"/>
      </g>
     </g>
    </g>
    <g id="text_6">
     <!-- Time spend -->
     <g transform="translate(267.136406 331.916562)scale(0.1 -0.1)">
      <defs>
       <path id="DejaVuSans-54" d="M -19 4666 
L 3928 4666 
L 3928 4134 
L 2272 4134 
L 2272 0 
L 1638 0 
L 1638 4134 
L -19 4134 
L -19 4666 
z
" transform="scale(0.015625)"/>
       <path id="DejaVuSans-69" d="M 603 3500 
L 1178 3500 
L 1178 0 
L 603 0 
L 603 3500 
z
M 603 4863 
L 1178 4863 
L 1178 4134 
L 603 4134 
L 603 4863 
z
" transform="scale(0.015625)"/>
       <path id="DejaVuSans-6d" d="M 3328 2828 
Q 3544 3216 3844 3400 
Q 4144 3584 4550 3584 
Q 5097 3584 5394 3201 
Q 5691 2819 5691 2113 
L 5691 0 
L 5113 0 
L 5113 2094 
Q 5113 2597 4934 2840 
Q 4756 3084 4391 3084 
Q 3944 3084 3684 2787 
Q 3425 2491 3425 1978 
L 3425 0 
L 2847 0 
L 2847 2094 
Q 2847 2600 2669 2842 
Q 2491 3084 2119 3084 
Q 1678 3084 1418 2786 
Q 1159 2488 1159 1978 
L 1159 0 
L 581 0 
L 581 3500 
L 1159 3500 
L 1159 2956 
Q 1356 3278 1631 3431 
Q 1906 3584 2284 3584 
Q 2666 3584 2933 3390 
Q 3200 3197 3328 2828 
z
" transform="scale(0.015625)"/>
       <path id="DejaVuSans-65" d="M 3597 1894 
L 3597 1613 
L 953 1613 
Q 991 1019 1311 708 
Q 1631 397 2203 397 
Q 2534 397 2845 478 
Q 3156 559 3463 722 
L 3463 178 
Q 3153 47 2828 -22 
Q 2503 -91 2169 -91 
Q 1331 -91 842 396 
Q 353 884 353 1716 
Q 353 2575 817 3079 
Q 1281 3584 2069 3584 
Q 2775 3584 3186 3129 
Q 3597 2675 3597 1894 
z
M 3022 2063 
Q 3016 2534 2758 2815 
Q 2500 3097 2075 3097 
Q 1594 3097 1305 2825 
Q 1016 2553 972 2059 
L 3022 2063 
z
" transform="scale(0.015625)"/>
       <path id="DejaVuSans-20" transform="scale(0.015625)"/>
       <path id="DejaVuSans-73" d="M 2834 3397 
L 2834 2853 
Q 2591 2978 2328 3040 
Q 2066 3103 1784 3103 
Q 1356 3103 1142 2972 
Q 928 2841 928 2578 
Q 928 2378 1081 2264 
Q 1234 2150 1697 2047 
L 1894 2003 
Q 2506 1872 2764 1633 
Q 3022 1394 3022 966 
Q 3022 478 2636 193 
Q 2250 -91 1575 -91 
Q 1294 -91 989 -36 
Q 684 19 347 128 
L 347 722 
Q 666 556 975 473 
Q 1284 391 1588 391 
Q 1994 391 2212 530 
Q 2431 669 2431 922 
Q 2431 1156 2273 1281 
Q 2116 1406 1581 1522 
L 1381 1569 
Q 847 1681 609 1914 
Q 372 2147 372 2553 
Q 372 3047 722 3315 
Q 1072 3584 1716 3584 
Q 2034 3584 2315 3537 
Q 2597 3491 2834 3397 
z
" transform="scale(0.015625)"/>
       <path id="DejaVuSans-70" d="M 1159 525 
L 1159 -1331 
L 581 -1331 
L 581 3500 
L 1159 3500 
L 1159 2969 
Q 1341 3281 1617 3432 
Q 1894 3584 2278 3584 
Q 2916 3584 3314 3078 
Q 3713 2572 3713 1747 
Q 3713 922 3314 415 
Q 2916 -91 2278 -91 
Q 1894 -91 1617 61 
Q 1341 213 1159 525 
z
M 3116 1747 
Q 3116 2381 2855 2742 
Q 2594 3103 2138 3103 
Q 1681 3103 1420 2742 
Q 1159 2381 1159 1747 
Q 1159 1113 1420 752 
Q 1681 391 2138 391 
Q 2594 391 2855 752 
Q 3116 1113 3116 1747 
z
" transform="scale(0.015625)"/>
       <path id="DejaVuSans-6e" d="M 3513 2113 
L 3513 0 
L 2938 0 
L 2938 2094 
Q 2938 2591 2744 2837 
Q 2550 3084 2163 3084 
Q 1697 3084 1428 2787 
Q 1159 2491 1159 1978 
L 1159 0 
L 581 0 
L 581 3500 
L 1159 3500 
L 1159 2956 
Q 1366 3272 1645 3428 
Q 1925 3584 2291 3584 
Q 2894 3584 3203 3211 
Q 3513 2838 3513 2113 
z
" transform="scale(0.015625)"/>
       <path id="DejaVuSans-64" d="M 2906 2969 
L 2906 4863 
L 3481 4863 
L 3481 0 
L 2906 0 
L 2906 525 
Q 2725 213 2448 61 
Q 2172 -91 1784 -91 
Q 1150 -91 751 415 
Q 353 922 353 1747 
Q 353 2572 751 3078 
Q 1150 3584 1784 3584 
Q 2172 3584 2448 3432 
Q 2725 3281 2906 2969 
z
M 947 1747 
Q 947 1113 1208 752 
Q 1469 391 1925 391 
Q 2381 391 2643 752 
Q 2906 1113 2906 1747 
Q 2906 2381 2643 2742 
Q 2381 3103 1925 3103 
Q 1469 3103 1208 2742 
Q 947 2381 947 1747 
z
" transform="scale(0.015625)"/>
      </defs>
      <use xlink:href="#DejaVuSans-54"/>
      <use xlink:href="#DejaVuSans-69" x="57.958984"/>
      <use xlink:href="#DejaVuSans-6d" x="85.742188"/>
      <use xlink:href="#DejaVuSans-65" x="183.154297"/>
      <use xlink:href="#DejaVuSans-20" x="244.677734"/>
      <use xlink:href="#DejaVuSans-73" x="276.464844"/>
      <use xlink:href="#DejaVuSans-70" x="328.564453"/>
      <use xlink:href="#DejaVuSans-65" x="392.041016"/>
      <use xlink:href="#DejaVuSans-6e" x="453.564453"/>
      <use xlink:href="#DejaVuSans-64" x="516.943359"/>
     </g>
    </g>
   </g>
   <g id="matplotlib.axis_2">
    <g id="ytick_1">
     <g id="line2d_6">
      <defs>
       <path id="m1d2a2b3cff" d="M 0 0 
L -3.5 0 
" style="stroke: #000000; stroke-width: 0.8"/>
      </defs>
      <g>
       <use xlink:href="#m1d2a2b3cff" x="142.315" y="292.967692" style="stroke: #000000; stroke-width: 0.8"/>
      </g>
     </g>
     <g id="text_7">
      <!-- community.rstudio.com -->
      <g transform="translate(17.986875 296.766911)scale(0.1 -0.1)">
       <defs>
        <path id="DejaVuSans-63" d="M 3122 3366 
L 3122 2828 
Q 2878 2963 2633 3030 
Q 2388 3097 2138 3097 
Q 1578 3097 1268 2742 
Q 959 2388 959 1747 
Q 959 1106 1268 751 
Q 1578 397 2138 397 
Q 2388 397 2633 464 
Q 2878 531 3122 666 
L 3122 134 
Q 2881 22 2623 -34 
Q 2366 -91 2075 -91 
Q 1284 -91 818 406 
Q 353 903 353 1747 
Q 353 2603 823 3093 
Q 1294 3584 2113 3584 
Q 2378 3584 2631 3529 
Q 2884 3475 3122 3366 
z
" transform="scale(0.015625)"/>
        <path id="DejaVuSans-6f" d="M 1959 3097 
Q 1497 3097 1228 2736 
Q 959 2375 959 1747 
Q 959 1119 1226 758 
Q 1494 397 1959 397 
Q 2419 397 2687 759 
Q 2956 1122 2956 1747 
Q 2956 2369 2687 2733 
Q 2419 3097 1959 3097 
z
M 1959 3584 
Q 2709 3584 3137 3096 
Q 3566 2609 3566 1747 
Q 3566 888 3137 398 
Q 2709 -91 1959 -91 
Q 1206 -91 779 398 
Q 353 888 353 1747 
Q 353 2609 779 3096 
Q 1206 3584 1959 3584 
z
" transform="scale(0.015625)"/>
        <path id="DejaVuSans-75" d="M 544 1381 
L 544 3500 
L 1119 3500 
L 1119 1403 
Q 1119 906 1312 657 
Q 1506 409 1894 409 
Q 2359 409 2629 706 
Q 2900 1003 2900 1516 
L 2900 3500 
L 3475 3500 
L 3475 0 
L 2900 0 
L 2900 538 
Q 2691 219 2414 64 
Q 2138 -91 1772 -91 
Q 1169 -91 856 284 
Q 544 659 544 1381 
z
M 1991 3584 
L 1991 3584 
z
" transform="scale(0.015625)"/>
        <path id="DejaVuSans-74" d="M 1172 4494 
L 1172 3500 
L 2356 3500 
L 2356 3053 
L 1172 3053 
L 1172 1153 
Q 1172 725 1289 603 
Q 1406 481 1766 481 
L 2356 481 
L 2356 0 
L 1766 0 
Q 1100 0 847 248 
Q 594 497 594 1153 
L 594 3053 
L 172 3053 
L 172 3500 
L 594 3500 
L 594 4494 
L 1172 4494 
z
" transform="scale(0.015625)"/>
        <path id="DejaVuSans-79" d="M 2059 -325 
Q 1816 -950 1584 -1140 
Q 1353 -1331 966 -1331 
L 506 -1331 
L 506 -850 
L 844 -850 
Q 1081 -850 1212 -737 
Q 1344 -625 1503 -206 
L 1606 56 
L 191 3500 
L 800 3500 
L 1894 763 
L 2988 3500 
L 3597 3500 
L 2059 -325 
z
" transform="scale(0.015625)"/>
        <path id="DejaVuSans-2e" d="M 684 794 
L 1344 794 
L 1344 0 
L 684 0 
L 684 794 
z
" transform="scale(0.015625)"/>
        <path id="DejaVuSans-72" d="M 2631 2963 
Q 2534 3019 2420 3045 
Q 2306 3072 2169 3072 
Q 1681 3072 1420 2755 
Q 1159 2438 1159 1844 
L 1159 0 
L 581 0 
L 581 3500 
L 1159 3500 
L 1159 2956 
Q 1341 3275 1631 3429 
Q 1922 3584 2338 3584 
Q 2397 3584 2469 3576 
Q 2541 3569 2628 3553 
L 2631 2963 
z
" transform="scale(0.015625)"/>
       </defs>
       <use xlink:href="#DejaVuSans-63"/>
       <use xlink:href="#DejaVuSans-6f" x="54.980469"/>
       <use xlink:href="#DejaVuSans-6d" x="116.162109"/>
       <use xlink:href="#DejaVuSans-6d" x="213.574219"/>
       <use xlink:href="#DejaVuSans-75" x="310.986328"/>
       <use xlink:href="#DejaVuSans-6e" x="374.365234"/>
       <use xlink:href="#DejaVuSans-69" x="437.744141"/>
       <use xlink:href="#DejaVuSans-74" x="465.527344"/>
       <use xlink:href="#DejaVuSans-79" x="504.736328"/>
       <use xlink:href="#DejaVuSans-2e" x="549.666016"/>
       <use xlink:href="#DejaVuSans-72" x="581.453125"/>
       <use xlink:href="#DejaVuSans-73" x="622.566406"/>
       <use xlink:href="#DejaVuSans-74" x="674.666016"/>
       <use xlink:href="#DejaVuSans-75" x="713.875"/>
       <use xlink:href="#DejaVuSans-64" x="777.253906"/>
       <use xlink:href="#DejaVuSans-69" x="840.730469"/>
       <use xlink:href="#DejaVuSans-6f" x="868.513672"/>
       <use xlink:href="#DejaVuSans-2e" x="927.945312"/>
       <use xlink:href="#DejaVuSans-63" x="959.732422"/>
       <use xlink:href="#DejaVuSans-6f" x="1014.712891"/>
       <use xlink:href="#DejaVuSans-6d" x="1075.894531"/>
      </g>
     </g>
    </g>
    <g id="ytick_2">
     <g id="line2d_7">
      <g>
       <use xlink:href="#m1d2a2b3cff" x="142.315" y="271.623077" style="stroke: #000000; stroke-width: 0.8"/>
      </g>
     </g>
     <g id="text_8">
      <!-- cran.r-project.org -->
      <g transform="translate(48.69625 275.422296)scale(0.1 -0.1)">
       <defs>
        <path id="DejaVuSans-61" d="M 2194 1759 
Q 1497 1759 1228 1600 
Q 959 1441 959 1056 
Q 959 750 1161 570 
Q 1363 391 1709 391 
Q 2188 391 2477 730 
Q 2766 1069 2766 1631 
L 2766 1759 
L 2194 1759 
z
M 3341 1997 
L 3341 0 
L 2766 0 
L 2766 531 
Q 2569 213 2275 61 
Q 1981 -91 1556 -91 
Q 1019 -91 701 211 
Q 384 513 384 1019 
Q 384 1609 779 1909 
Q 1175 2209 1959 2209 
L 2766 2209 
L 2766 2266 
Q 2766 2663 2505 2880 
Q 2244 3097 1772 3097 
Q 1472 3097 1187 3025 
Q 903 2953 641 2809 
L 641 3341 
Q 956 3463 1253 3523 
Q 1550 3584 1831 3584 
Q 2591 3584 2966 3190 
Q 3341 2797 3341 1997 
z
" transform="scale(0.015625)"/>
        <path id="DejaVuSans-2d" d="M 313 2009 
L 1997 2009 
L 1997 1497 
L 313 1497 
L 313 2009 
z
" transform="scale(0.015625)"/>
        <path id="DejaVuSans-6a" d="M 603 3500 
L 1178 3500 
L 1178 -63 
Q 1178 -731 923 -1031 
Q 669 -1331 103 -1331 
L -116 -1331 
L -116 -844 
L 38 -844 
Q 366 -844 484 -692 
Q 603 -541 603 -63 
L 603 3500 
z
M 603 4863 
L 1178 4863 
L 1178 4134 
L 603 4134 
L 603 4863 
z
" transform="scale(0.015625)"/>
        <path id="DejaVuSans-67" d="M 2906 1791 
Q 2906 2416 2648 2759 
Q 2391 3103 1925 3103 
Q 1463 3103 1205 2759 
Q 947 2416 947 1791 
Q 947 1169 1205 825 
Q 1463 481 1925 481 
Q 2391 481 2648 825 
Q 2906 1169 2906 1791 
z
M 3481 434 
Q 3481 -459 3084 -895 
Q 2688 -1331 1869 -1331 
Q 1566 -1331 1297 -1286 
Q 1028 -1241 775 -1147 
L 775 -588 
Q 1028 -725 1275 -790 
Q 1522 -856 1778 -856 
Q 2344 -856 2625 -561 
Q 2906 -266 2906 331 
L 2906 616 
Q 2728 306 2450 153 
Q 2172 0 1784 0 
Q 1141 0 747 490 
Q 353 981 353 1791 
Q 353 2603 747 3093 
Q 1141 3584 1784 3584 
Q 2172 3584 2450 3431 
Q 2728 3278 2906 2969 
L 2906 3500 
L 3481 3500 
L 3481 434 
z
" transform="scale(0.015625)"/>
       </defs>
       <use xlink:href="#DejaVuSans-63"/>
       <use xlink:href="#DejaVuSans-72" x="54.980469"/>
       <use xlink:href="#DejaVuSans-61" x="96.09375"/>
       <use xlink:href="#DejaVuSans-6e" x="157.373047"/>
       <use xlink:href="#DejaVuSans-2e" x="220.751953"/>
       <use xlink:href="#DejaVuSans-72" x="252.539062"/>
       <use xlink:href="#DejaVuSans-2d" x="287.277344"/>
       <use xlink:href="#DejaVuSans-70" x="323.361328"/>
       <use xlink:href="#DejaVuSans-72" x="386.837891"/>
       <use xlink:href="#DejaVuSans-6f" x="425.701172"/>
       <use xlink:href="#DejaVuSans-6a" x="486.882812"/>
       <use xlink:href="#DejaVuSans-65" x="514.666016"/>
       <use xlink:href="#DejaVuSans-63" x="576.189453"/>
       <use xlink:href="#DejaVuSans-74" x="631.169922"/>
       <use xlink:href="#DejaVuSans-2e" x="670.378906"/>
       <use xlink:href="#DejaVuSans-6f" x="702.166016"/>
       <use xlink:href="#DejaVuSans-72" x="763.347656"/>
       <use xlink:href="#DejaVuSans-67" x="802.710938"/>
      </g>
     </g>
    </g>
    <g id="ytick_3">
     <g id="line2d_8">
      <g>
       <use xlink:href="#m1d2a2b3cff" x="142.315" y="250.278462" style="stroke: #000000; stroke-width: 0.8"/>
      </g>
     </g>
     <g id="text_9">
      <!-- docs.google.com -->
      <g transform="translate(50.560313 254.07768)scale(0.1 -0.1)">
       <defs>
        <path id="DejaVuSans-6c" d="M 603 4863 
L 1178 4863 
L 1178 0 
L 603 0 
L 603 4863 
z
" transform="scale(0.015625)"/>
       </defs>
       <use xlink:href="#DejaVuSans-64"/>
       <use xlink:href="#DejaVuSans-6f" x="63.476562"/>
       <use xlink:href="#DejaVuSans-63" x="124.658203"/>
       <use xlink:href="#DejaVuSans-73" x="179.638672"/>
       <use xlink:href="#DejaVuSans-2e" x="231.738281"/>
       <use xlink:href="#DejaVuSans-67" x="263.525391"/>
       <use xlink:href="#DejaVuSans-6f" x="327.001953"/>
       <use xlink:href="#DejaVuSans-6f" x="388.183594"/>
       <use xlink:href="#DejaVuSans-67" x="449.365234"/>
       <use xlink:href="#DejaVuSans-6c" x="512.841797"/>
       <use xlink:href="#DejaVuSans-65" x="540.625"/>
       <use xlink:href="#DejaVuSans-2e" x="602.148438"/>
       <use xlink:href="#DejaVuSans-63" x="633.935547"/>
       <use xlink:href="#DejaVuSans-6f" x="688.916016"/>
       <use xlink:href="#DejaVuSans-6d" x="750.097656"/>
      </g>
     </g>
    </g>
    <g id="ytick_4">
     <g id="line2d_9">
      <g>
       <use xlink:href="#m1d2a2b3cff" x="142.315" y="228.933846" style="stroke: #000000; stroke-width: 0.8"/>
      </g>
     </g>
     <g id="text_10">
      <!-- mail.google.com -->
      <g transform="translate(52.310313 232.733065)scale(0.1 -0.1)">
       <use xlink:href="#DejaVuSans-6d"/>
       <use xlink:href="#DejaVuSans-61" x="97.412109"/>
       <use xlink:href="#DejaVuSans-69" x="158.691406"/>
       <use xlink:href="#DejaVuSans-6c" x="186.474609"/>
       <use xlink:href="#DejaVuSans-2e" x="214.257812"/>
       <use xlink:href="#DejaVuSans-67" x="246.044922"/>
       <use xlink:href="#DejaVuSans-6f" x="309.521484"/>
       <use xlink:href="#DejaVuSans-6f" x="370.703125"/>
       <use xlink:href="#DejaVuSans-67" x="431.884766"/>
       <use xlink:href="#DejaVuSans-6c" x="495.361328"/>
       <use xlink:href="#DejaVuSans-65" x="523.144531"/>
       <use xlink:href="#DejaVuSans-2e" x="584.667969"/>
       <use xlink:href="#DejaVuSans-63" x="616.455078"/>
       <use xlink:href="#DejaVuSans-6f" x="671.435547"/>
       <use xlink:href="#DejaVuSans-6d" x="732.617188"/>
      </g>
     </g>
    </g>
    <g id="ytick_5">
     <g id="line2d_10">
      <g>
       <use xlink:href="#m1d2a2b3cff" x="142.315" y="207.589231" style="stroke: #000000; stroke-width: 0.8"/>
      </g>
     </g>
     <g id="text_11">
      <!-- stackoverflow.com -->
      <g transform="translate(42.610313 211.38845)scale(0.1 -0.1)">
       <defs>
        <path id="DejaVuSans-6b" d="M 581 4863 
L 1159 4863 
L 1159 1991 
L 2875 3500 
L 3609 3500 
L 1753 1863 
L 3688 0 
L 2938 0 
L 1159 1709 
L 1159 0 
L 581 0 
L 581 4863 
z
" transform="scale(0.015625)"/>
        <path id="DejaVuSans-76" d="M 191 3500 
L 800 3500 
L 1894 563 
L 2988 3500 
L 3597 3500 
L 2284 0 
L 1503 0 
L 191 3500 
z
" transform="scale(0.015625)"/>
        <path id="DejaVuSans-66" d="M 2375 4863 
L 2375 4384 
L 1825 4384 
Q 1516 4384 1395 4259 
Q 1275 4134 1275 3809 
L 1275 3500 
L 2222 3500 
L 2222 3053 
L 1275 3053 
L 1275 0 
L 697 0 
L 697 3053 
L 147 3053 
L 147 3500 
L 697 3500 
L 697 3744 
Q 697 4328 969 4595 
Q 1241 4863 1831 4863 
L 2375 4863 
z
" transform="scale(0.015625)"/>
        <path id="DejaVuSans-77" d="M 269 3500 
L 844 3500 
L 1563 769 
L 2278 3500 
L 2956 3500 
L 3675 769 
L 4391 3500 
L 4966 3500 
L 4050 0 
L 3372 0 
L 2619 2869 
L 1863 0 
L 1184 0 
L 269 3500 
z
" transform="scale(0.015625)"/>
       </defs>
       <use xlink:href="#DejaVuSans-73"/>
       <use xlink:href="#DejaVuSans-74" x="52.099609"/>
       <use xlink:href="#DejaVuSans-61" x="91.308594"/>
       <use xlink:href="#DejaVuSans-63" x="152.587891"/>
       <use xlink:href="#DejaVuSans-6b" x="207.568359"/>
       <use xlink:href="#DejaVuSans-6f" x="261.853516"/>
       <use xlink:href="#DejaVuSans-76" x="323.035156"/>
       <use xlink:href="#DejaVuSans-65" x="382.214844"/>
       <use xlink:href="#DejaVuSans-72" x="443.738281"/>
       <use xlink:href="#DejaVuSans-66" x="484.851562"/>
       <use xlink:href="#DejaVuSans-6c" x="520.056641"/>
       <use xlink:href="#DejaVuSans-6f" x="547.839844"/>
       <use xlink:href="#DejaVuSans-77" x="609.021484"/>
       <use xlink:href="#DejaVuSans-2e" x="681.683594"/>
       <use xlink:href="#DejaVuSans-63" x="713.470703"/>
       <use xlink:href="#DejaVuSans-6f" x="768.451172"/>
       <use xlink:href="#DejaVuSans-6d" x="829.632812"/>
      </g>
     </g>
    </g>
    <g id="ytick_6">
     <g id="line2d_11">
      <g>
       <use xlink:href="#m1d2a2b3cff" x="142.315" y="186.244615" style="stroke: #000000; stroke-width: 0.8"/>
      </g>
     </g>
     <g id="text_12">
      <!-- towardsdatascience.com -->
      <g transform="translate(10.786875 190.043834)scale(0.1 -0.1)">
       <use xlink:href="#DejaVuSans-74"/>
       <use xlink:href="#DejaVuSans-6f" x="39.208984"/>
       <use xlink:href="#DejaVuSans-77" x="100.390625"/>
       <use xlink:href="#DejaVuSans-61" x="182.177734"/>
       <use xlink:href="#DejaVuSans-72" x="243.457031"/>
       <use xlink:href="#DejaVuSans-64" x="282.820312"/>
       <use xlink:href="#DejaVuSans-73" x="346.296875"/>
       <use xlink:href="#DejaVuSans-64" x="398.396484"/>
       <use xlink:href="#DejaVuSans-61" x="461.873047"/>
       <use xlink:href="#DejaVuSans-74" x="523.152344"/>
       <use xlink:href="#DejaVuSans-61" x="562.361328"/>
       <use xlink:href="#DejaVuSans-73" x="623.640625"/>
       <use xlink:href="#DejaVuSans-63" x="675.740234"/>
       <use xlink:href="#DejaVuSans-69" x="730.720703"/>
       <use xlink:href="#DejaVuSans-65" x="758.503906"/>
       <use xlink:href="#DejaVuSans-6e" x="820.027344"/>
       <use xlink:href="#DejaVuSans-63" x="883.40625"/>
       <use xlink:href="#DejaVuSans-65" x="938.386719"/>
       <use xlink:href="#DejaVuSans-2e" x="999.910156"/>
       <use xlink:href="#DejaVuSans-63" x="1031.697266"/>
       <use xlink:href="#DejaVuSans-6f" x="1086.677734"/>
       <use xlink:href="#DejaVuSans-6d" x="1147.859375"/>
      </g>
     </g>
    </g>
    <g id="ytick_7">
     <g id="line2d_12">
      <g>
       <use xlink:href="#m1d2a2b3cff" x="142.315" y="164.9" style="stroke: #000000; stroke-width: 0.8"/>
      </g>
     </g>
     <g id="text_13">
      <!-- ubi-naist.github.io -->
      <g transform="translate(44.54625 168.699219)scale(0.1 -0.1)">
       <defs>
        <path id="DejaVuSans-62" d="M 3116 1747 
Q 3116 2381 2855 2742 
Q 2594 3103 2138 3103 
Q 1681 3103 1420 2742 
Q 1159 2381 1159 1747 
Q 1159 1113 1420 752 
Q 1681 391 2138 391 
Q 2594 391 2855 752 
Q 3116 1113 3116 1747 
z
M 1159 2969 
Q 1341 3281 1617 3432 
Q 1894 3584 2278 3584 
Q 2916 3584 3314 3078 
Q 3713 2572 3713 1747 
Q 3713 922 3314 415 
Q 2916 -91 2278 -91 
Q 1894 -91 1617 61 
Q 1341 213 1159 525 
L 1159 0 
L 581 0 
L 581 4863 
L 1159 4863 
L 1159 2969 
z
" transform="scale(0.015625)"/>
        <path id="DejaVuSans-68" d="M 3513 2113 
L 3513 0 
L 2938 0 
L 2938 2094 
Q 2938 2591 2744 2837 
Q 2550 3084 2163 3084 
Q 1697 3084 1428 2787 
Q 1159 2491 1159 1978 
L 1159 0 
L 581 0 
L 581 4863 
L 1159 4863 
L 1159 2956 
Q 1366 3272 1645 3428 
Q 1925 3584 2291 3584 
Q 2894 3584 3203 3211 
Q 3513 2838 3513 2113 
z
" transform="scale(0.015625)"/>
       </defs>
       <use xlink:href="#DejaVuSans-75"/>
       <use xlink:href="#DejaVuSans-62" x="63.378906"/>
       <use xlink:href="#DejaVuSans-69" x="126.855469"/>
       <use xlink:href="#DejaVuSans-2d" x="154.638672"/>
       <use xlink:href="#DejaVuSans-6e" x="190.722656"/>
       <use xlink:href="#DejaVuSans-61" x="254.101562"/>
       <use xlink:href="#DejaVuSans-69" x="315.380859"/>
       <use xlink:href="#DejaVuSans-73" x="343.164062"/>
       <use xlink:href="#DejaVuSans-74" x="395.263672"/>
       <use xlink:href="#DejaVuSans-2e" x="434.472656"/>
       <use xlink:href="#DejaVuSans-67" x="466.259766"/>
       <use xlink:href="#DejaVuSans-69" x="529.736328"/>
       <use xlink:href="#DejaVuSans-74" x="557.519531"/>
       <use xlink:href="#DejaVuSans-68" x="596.728516"/>
       <use xlink:href="#DejaVuSans-75" x="660.107422"/>
       <use xlink:href="#DejaVuSans-62" x="723.486328"/>
       <use xlink:href="#DejaVuSans-2e" x="786.962891"/>
       <use xlink:href="#DejaVuSans-69" x="818.75"/>
       <use xlink:href="#DejaVuSans-6f" x="846.533203"/>
      </g>
     </g>
    </g>
    <g id="ytick_8">
     <g id="line2d_13">
      <g>
       <use xlink:href="#m1d2a2b3cff" x="142.315" y="143.555385" style="stroke: #000000; stroke-width: 0.8"/>
      </g>
     </g>
     <g id="text_14">
      <!-- www.geeksforgeeks.org -->
      <g transform="translate(16.049375 147.354603)scale(0.1 -0.1)">
       <use xlink:href="#DejaVuSans-77"/>
       <use xlink:href="#DejaVuSans-77" x="81.787109"/>
       <use xlink:href="#DejaVuSans-77" x="163.574219"/>
       <use xlink:href="#DejaVuSans-2e" x="236.236328"/>
       <use xlink:href="#DejaVuSans-67" x="268.023438"/>
       <use xlink:href="#DejaVuSans-65" x="331.5"/>
       <use xlink:href="#DejaVuSans-65" x="393.023438"/>
       <use xlink:href="#DejaVuSans-6b" x="454.546875"/>
       <use xlink:href="#DejaVuSans-73" x="512.457031"/>
       <use xlink:href="#DejaVuSans-66" x="564.556641"/>
       <use xlink:href="#DejaVuSans-6f" x="599.761719"/>
       <use xlink:href="#DejaVuSans-72" x="660.943359"/>
       <use xlink:href="#DejaVuSans-67" x="700.306641"/>
       <use xlink:href="#DejaVuSans-65" x="763.783203"/>
       <use xlink:href="#DejaVuSans-65" x="825.306641"/>
       <use xlink:href="#DejaVuSans-6b" x="886.830078"/>
       <use xlink:href="#DejaVuSans-73" x="944.740234"/>
       <use xlink:href="#DejaVuSans-2e" x="996.839844"/>
       <use xlink:href="#DejaVuSans-6f" x="1028.626953"/>
       <use xlink:href="#DejaVuSans-72" x="1089.808594"/>
       <use xlink:href="#DejaVuSans-67" x="1129.171875"/>
      </g>
     </g>
    </g>
    <g id="ytick_9">
     <g id="line2d_14">
      <g>
       <use xlink:href="#m1d2a2b3cff" x="142.315" y="122.210769" style="stroke: #000000; stroke-width: 0.8"/>
      </g>
     </g>
     <g id="text_15">
      <!-- www.google.com -->
      <g transform="translate(50.113438 126.009988)scale(0.1 -0.1)">
       <use xlink:href="#DejaVuSans-77"/>
       <use xlink:href="#DejaVuSans-77" x="81.787109"/>
       <use xlink:href="#DejaVuSans-77" x="163.574219"/>
       <use xlink:href="#DejaVuSans-2e" x="236.236328"/>
       <use xlink:href="#DejaVuSans-67" x="268.023438"/>
       <use xlink:href="#DejaVuSans-6f" x="331.5"/>
       <use xlink:href="#DejaVuSans-6f" x="392.681641"/>
       <use xlink:href="#DejaVuSans-67" x="453.863281"/>
       <use xlink:href="#DejaVuSans-6c" x="517.339844"/>
       <use xlink:href="#DejaVuSans-65" x="545.123047"/>
       <use xlink:href="#DejaVuSans-2e" x="606.646484"/>
       <use xlink:href="#DejaVuSans-63" x="638.433594"/>
       <use xlink:href="#DejaVuSans-6f" x="693.414062"/>
       <use xlink:href="#DejaVuSans-6d" x="754.595703"/>
      </g>
     </g>
    </g>
    <g id="ytick_10">
     <g id="line2d_15">
      <g>
       <use xlink:href="#m1d2a2b3cff" x="142.315" y="100.866154" style="stroke: #000000; stroke-width: 0.8"/>
      </g>
     </g>
     <g id="text_16">
      <!-- www.listendata.com -->
      <g transform="translate(34.2775 104.665373)scale(0.1 -0.1)">
       <use xlink:href="#DejaVuSans-77"/>
       <use xlink:href="#DejaVuSans-77" x="81.787109"/>
       <use xlink:href="#DejaVuSans-77" x="163.574219"/>
       <use xlink:href="#DejaVuSans-2e" x="236.236328"/>
       <use xlink:href="#DejaVuSans-6c" x="268.023438"/>
       <use xlink:href="#DejaVuSans-69" x="295.806641"/>
       <use xlink:href="#DejaVuSans-73" x="323.589844"/>
       <use xlink:href="#DejaVuSans-74" x="375.689453"/>
       <use xlink:href="#DejaVuSans-65" x="414.898438"/>
       <use xlink:href="#DejaVuSans-6e" x="476.421875"/>
       <use xlink:href="#DejaVuSans-64" x="539.800781"/>
       <use xlink:href="#DejaVuSans-61" x="603.277344"/>
       <use xlink:href="#DejaVuSans-74" x="664.556641"/>
       <use xlink:href="#DejaVuSans-61" x="703.765625"/>
       <use xlink:href="#DejaVuSans-2e" x="765.044922"/>
       <use xlink:href="#DejaVuSans-63" x="796.832031"/>
       <use xlink:href="#DejaVuSans-6f" x="851.8125"/>
       <use xlink:href="#DejaVuSans-6d" x="912.994141"/>
      </g>
     </g>
    </g>
    <g id="ytick_11">
     <g id="line2d_16">
      <g>
       <use xlink:href="#m1d2a2b3cff" x="142.315" y="79.521538" style="stroke: #000000; stroke-width: 0.8"/>
      </g>
     </g>
     <g id="text_17">
      <!-- www.statology.org -->
      <g transform="translate(43.897813 83.320757)scale(0.1 -0.1)">
       <use xlink:href="#DejaVuSans-77"/>
       <use xlink:href="#DejaVuSans-77" x="81.787109"/>
       <use xlink:href="#DejaVuSans-77" x="163.574219"/>
       <use xlink:href="#DejaVuSans-2e" x="236.236328"/>
       <use xlink:href="#DejaVuSans-73" x="268.023438"/>
       <use xlink:href="#DejaVuSans-74" x="320.123047"/>
       <use xlink:href="#DejaVuSans-61" x="359.332031"/>
       <use xlink:href="#DejaVuSans-74" x="420.611328"/>
       <use xlink:href="#DejaVuSans-6f" x="459.820312"/>
       <use xlink:href="#DejaVuSans-6c" x="521.001953"/>
       <use xlink:href="#DejaVuSans-6f" x="548.785156"/>
       <use xlink:href="#DejaVuSans-67" x="609.966797"/>
       <use xlink:href="#DejaVuSans-79" x="673.443359"/>
       <use xlink:href="#DejaVuSans-2e" x="718.373047"/>
       <use xlink:href="#DejaVuSans-6f" x="750.160156"/>
       <use xlink:href="#DejaVuSans-72" x="811.341797"/>
       <use xlink:href="#DejaVuSans-67" x="850.705078"/>
      </g>
     </g>
    </g>
    <g id="ytick_12">
     <g id="line2d_17">
      <g>
       <use xlink:href="#m1d2a2b3cff" x="142.315" y="58.176923" style="stroke: #000000; stroke-width: 0.8"/>
      </g>
     </g>
     <g id="text_18">
      <!-- www.sthda.com -->
      <g transform="translate(56.035313 61.976142)scale(0.1 -0.1)">
       <use xlink:href="#DejaVuSans-77"/>
       <use xlink:href="#DejaVuSans-77" x="81.787109"/>
       <use xlink:href="#DejaVuSans-77" x="163.574219"/>
       <use xlink:href="#DejaVuSans-2e" x="236.236328"/>
       <use xlink:href="#DejaVuSans-73" x="268.023438"/>
       <use xlink:href="#DejaVuSans-74" x="320.123047"/>
       <use xlink:href="#DejaVuSans-68" x="359.332031"/>
       <use xlink:href="#DejaVuSans-64" x="422.710938"/>
       <use xlink:href="#DejaVuSans-61" x="486.1875"/>
       <use xlink:href="#DejaVuSans-2e" x="547.466797"/>
       <use xlink:href="#DejaVuSans-63" x="579.253906"/>
       <use xlink:href="#DejaVuSans-6f" x="634.234375"/>
       <use xlink:href="#DejaVuSans-6d" x="695.416016"/>
      </g>
     </g>
    </g>
    <g id="ytick_13">
     <g id="line2d_18">
      <g>
       <use xlink:href="#m1d2a2b3cff" x="142.315" y="36.832308" style="stroke: #000000; stroke-width: 0.8"/>
      </g>
     </g>
     <g id="text_19">
      <!-- www.tutorialkart.com -->
      <g transform="translate(28.111875 40.631526)scale(0.1 -0.1)">
       <use xlink:href="#DejaVuSans-77"/>
       <use xlink:href="#DejaVuSans-77" x="81.787109"/>
       <use xlink:href="#DejaVuSans-77" x="163.574219"/>
       <use xlink:href="#DejaVuSans-2e" x="236.236328"/>
       <use xlink:href="#DejaVuSans-74" x="268.023438"/>
       <use xlink:href="#DejaVuSans-75" x="307.232422"/>
       <use xlink:href="#DejaVuSans-74" x="370.611328"/>
       <use xlink:href="#DejaVuSans-6f" x="409.820312"/>
       <use xlink:href="#DejaVuSans-72" x="471.001953"/>
       <use xlink:href="#DejaVuSans-69" x="512.115234"/>
       <use xlink:href="#DejaVuSans-61" x="539.898438"/>
       <use xlink:href="#DejaVuSans-6c" x="601.177734"/>
       <use xlink:href="#DejaVuSans-6b" x="628.960938"/>
       <use xlink:href="#DejaVuSans-61" x="685.121094"/>
       <use xlink:href="#DejaVuSans-72" x="746.400391"/>
       <use xlink:href="#DejaVuSans-74" x="787.513672"/>
       <use xlink:href="#DejaVuSans-2e" x="826.722656"/>
       <use xlink:href="#DejaVuSans-63" x="858.509766"/>
       <use xlink:href="#DejaVuSans-6f" x="913.490234"/>
       <use xlink:href="#DejaVuSans-6d" x="974.671875"/>
      </g>
     </g>
    </g>
   </g>
   <g id="patch_16">
    <path d="M 142.315 303.64 
L 142.315 26.16 
" style="fill: none; stroke: #000000; stroke-width: 0.8; stroke-linejoin: miter; stroke-linecap: square"/>
   </g>
   <g id="patch_17">
    <path d="M 450 303.64 
L 450 26.16 
" style="fill: none; stroke: #000000; stroke-width: 0.8; stroke-linejoin: miter; stroke-linecap: square"/>
   </g>
   <g id="patch_18">
    <path d="M 142.315 303.64 
L 450 303.64 
" style="fill: none; stroke: #000000; stroke-width: 0.8; stroke-linejoin: miter; stroke-linecap: square"/>
   </g>
   <g id="patch_19">
    <path d="M 142.315 26.16 
L 450 26.16 
" style="fill: none; stroke: #000000; stroke-width: 0.8; stroke-linejoin: miter; stroke-linecap: square"/>
   </g>
   <g id="text_20">
    <!-- Victor_Feuga -->
    <g transform="translate(257.630938 20.16)scale(0.12 -0.12)">
     <defs>
      <path id="DejaVuSans-56" d="M 1831 0 
L 50 4666 
L 709 4666 
L 2188 738 
L 3669 4666 
L 4325 4666 
L 2547 0 
L 1831 0 
z
" transform="scale(0.015625)"/>
      <path id="DejaVuSans-5f" d="M 3263 -1063 
L 3263 -1509 
L -63 -1509 
L -63 -1063 
L 3263 -1063 
z
" transform="scale(0.015625)"/>
      <path id="DejaVuSans-46" d="M 628 4666 
L 3309 4666 
L 3309 4134 
L 1259 4134 
L 1259 2759 
L 3109 2759 
L 3109 2228 
L 1259 2228 
L 1259 0 
L 628 0 
L 628 4666 
z
" transform="scale(0.015625)"/>
     </defs>
     <use xlink:href="#DejaVuSans-56"/>
     <use xlink:href="#DejaVuSans-69" x="66.158203"/>
     <use xlink:href="#DejaVuSans-63" x="93.941406"/>
     <use xlink:href="#DejaVuSans-74" x="148.921875"/>
     <use xlink:href="#DejaVuSans-6f" x="188.130859"/>
     <use xlink:href="#DejaVuSans-72" x="249.3125"/>
     <use xlink:href="#DejaVuSans-5f" x="290.425781"/>
     <use xlink:href="#DejaVuSans-46" x="340.425781"/>
     <use xlink:href="#DejaVuSans-65" x="392.445312"/>
     <use xlink:href="#DejaVuSans-75" x="453.96875"/>
     <use xlink:href="#DejaVuSans-67" x="517.347656"/>
     <use xlink:href="#DejaVuSans-61" x="580.824219"/>
    </g>
   </g>
  </g>
 </g>
 <defs>
  <clipPath id="p417155f1b6">
   <rect x="142.315" y="26.16" width="307.685" height="277.48"/>
  </clipPath>
 </defs>
</svg>
